<svg viewBox="0 0 600 400" xmlns="http://www.w3.org/2000/svg">
<g transform="translate(72, 364)">
<g>
<g>
<circle cx="275.74516327556995" cy="-104.68781611130461" fill="blue" r="2"/>
<circle cx="407.4451612383845" cy="-278.92569775106887" fill="blue" r="2"/>
<circle cx="56.05115820844379" cy="-92.00522931045386" fill="blue" r="2"/>
<circle cx="197.2981369139902" cy="-60.64589888145871" fill="blue" r="2"/>
<circle cx="243.23688346279187" cy="-176.40647657886913" fill="blue" r="2"/>
<circle cx="136.48107393191384" cy="-3.3696151621353154" fill="blue" r="2"/>
<circle cx="337.92498204452454" cy="-283.87851051218615" fill="blue" r="2"/>
<circle cx="248.88643893995027" cy="-209.3395043554819" fill="blue" r="2"/>
<circle cx="420.4770209099774" cy="-269.00483700326856" fill="blue" r="2"/>
<circle cx="373.92726655810003" cy="-297.1227538254752" fill="blue" r="2"/>
<circle cx="29.723027788589214" cy="-179.8361287487351" fill="blue" r="2"/>
<circle cx="315.0693436218605" cy="-258.3450650916842" fill="blue" r="2"/>
<circle cx="370.7244575419238" cy="-213.58449604191438" fill="blue" r="2"/>
<circle cx="406.6072224518814" cy="-59.84292436030063" fill="blue" r="2"/>
<circle cx="175.60192464992514" cy="-43.80232325897011" fill="blue" r="2"/>
<circle cx="470.2056596144129" cy="-18.833833025679407" fill="blue" r="2"/>
<circle cx="446.24346036862073" cy="-268.216787908901" fill="blue" r="2"/>
<circle cx="467.1294781601608" cy="-82.46699968351243" fill="blue" r="2"/>
<circle cx="424.6530565757648" cy="-37.500818850701954" fill="blue" r="2"/>
<circle cx="173.63233275232835" cy="-290.707778879101" fill="blue" r="2"/>
<circle cx="476.1955030358724" cy="-331.0406366867739" fill="blue" r="2"/>
<circle cx="340.74464182630044" cy="-72.85295330540788" fill="blue" r="2"/>
<circle cx="109.43023403478182" cy="-53.055446477482946" fill="blue" r="2"/>
<circle cx="334.60027635183496" cy="-70.44417157497489" fill="blue" r="2"/>
<circle cx="88.10394189213433" cy="-187.04095206778263" fill="blue" r="2"/>
<circle cx="65.62432827624988" cy="-89.69208833374" fill="blue" r="2"/>
<circle cx="210.60717905247492" cy="-3.3811591612272984" fill="blue" r="2"/>
<circle cx="101.84075953255191" cy="-77.49141911706155" fill="blue" r="2"/>
<circle cx="26.15872865468809" cy="-181.90344584344658" fill="blue" r="2"/>
<circle cx="318.9774314812735" cy="-262.21011086126" fill="blue" r="2"/>
<circle cx="51.0979452289882" cy="-99.30778165961812" fill="blue" r="2"/>
<circle cx="199.00989456096212" cy="-115.05648305652187" fill="blue" r="2"/>
<circle cx="104.65240060671758" cy="-114.72806606234232" fill="blue" r="2"/>
<circle cx="13.04336414634843" cy="-173.13602172427642" fill="blue" r="2"/>
<circle cx="465.16516761923504" cy="-315.7382843393587" fill="blue" r="2"/>
<circle cx="309.577229762905" cy="-103.18006918940759" fill="blue" r="2"/>
<circle cx="350.7573146358892" cy="-238.71618359723288" fill="blue" r="2"/>
<circle cx="432.29540160131705" cy="-294.3790601817522" fill="blue" r="2"/>
<circle cx="457.6874708280378" cy="-27.990830130778246" fill="blue" r="2"/>
<circle cx="162.6536614285466" cy="-220.0729159889766" fill="blue" r="2"/>
<circle cx="117.47996667988022" cy="-191.05362689037713" fill="blue" r="2"/>
<circle cx="179.83685531095665" cy="-8.044720625073385" fill="blue" r="2"/>
<circle cx="227.94060292024403" cy="-314.7942962059907" fill="blue" r="2"/>
<circle cx="185.93610378962052" cy="-16.281799266574545" fill="blue" r="2"/>
<circle cx="255.99544687415408" cy="-57.226064729976514" fill="blue" r="2"/>
<circle cx="399.97557699266366" cy="-113.55975389199001" fill="blue" r="2"/>
<circle cx="389.6725752104802" cy="-152.9901142202811" fill="blue" r="2"/>
<circle cx="442.1989415303338" cy="-133.765245257657" fill="blue" r="2"/>
<circle cx="253.46165148223932" cy="-35.33023316954898" fill="blue" r="2"/>
<circle cx="341.2136720546432" cy="-32.200522761006965" fill="blue" r="2"/>
<circle cx="400.51786588331436" cy="-180.11115907539022" fill="blue" r="2"/>
<circle cx="355.215949998803" cy="-180.562642528748" fill="blue" r="2"/>
<circle cx="113.2271632846327" cy="-86.53317435272203" fill="blue" r="2"/>
<circle cx="237.64657940406659" cy="-94.98741390029465" fill="blue" r="2"/>
<circle cx="86.25498662938088" cy="-83.22804308940805" fill="blue" r="2"/>
<circle cx="279.27429884923765" cy="-99.57820410767393" fill="blue" r="2"/>
<circle cx="138.79752666519792" cy="-120.09528591070043" fill="blue" r="2"/>
<circle cx="54.2459237543164" cy="-333.1489777641084" fill="blue" r="2"/>
<circle cx="435.95584831747743" cy="-15.847724725571348" fill="blue" r="2"/>
<circle cx="57.718456654186596" cy="-6.899380170887022" fill="blue" r="2"/>
<circle cx="119.68737154875885" cy="-215.3567214797654" fill="blue" r="2"/>
<circle cx="301.496161489365" cy="-95.25548507111668" fill="blue" r="2"/>
<circle cx="403.9463156778254" cy="-331.17347424387646" fill="blue" r="2"/>
<circle cx="94.5185849904432" cy="-73.70619666809273" fill="blue" r="2"/>
<circle cx="302.61442685172574" cy="-248.46247556018216" fill="blue" r="2"/>
<circle cx="35.674439231051025" cy="-164.41943089798937" fill="blue" r="2"/>
<circle cx="307.1224890655338" cy="-67.2770354077687" fill="blue" r="2"/>
<circle cx="161.3959653205822" cy="-281.024531888958" fill="blue" r="2"/>
<circle cx="63.0011975009651" cy="-67.82894030786403" fill="blue" r="2"/>
<circle cx="378.80086848195924" cy="-293.4824154477226" fill="blue" r="2"/>
<circle cx="309.3450898430967" cy="-226.75871520601015" fill="blue" r="2"/>
<circle cx="188.60144757007762" cy="-36.01909688509673" fill="blue" r="2"/>
<circle cx="153.2210351091926" cy="-160.80665885479175" fill="blue" r="2"/>
<circle cx="347.32973800984377" cy="-39.86467876950577" fill="blue" r="2"/>
<circle cx="344.40561622447973" cy="-69.07226784465533" fill="blue" r="2"/>
<circle cx="225.76262123291795" cy="-218.56640603123947" fill="blue" r="2"/>
<circle cx="204.08565296017625" cy="-98.8736528331193" fill="blue" r="2"/>
<circle cx="129.64391130986922" cy="-259.00282874360784" fill="blue" r="2"/>
<circle cx="74.79391329283447" cy="-338.6395007214274" fill="blue" r="2"/>
<circle cx="56.57306862032911" cy="-129.1059287022208" fill="blue" r="2"/>
<circle cx="275.45663494968306" cy="-166.25361590905695" fill="blue" r="2"/>
<circle cx="276.2452594186033" cy="-166.15111465390274" fill="blue" r="2"/>
<circle cx="297.3504029014424" cy="-121.08447015667406" fill="blue" r="2"/>
<circle cx="109.49045381172564" cy="-62.08203457918318" fill="blue" r="2"/>
<circle cx="364.29036159270436" cy="-85.46035097946809" fill="blue" r="2"/>
<circle cx="295.9851770986303" cy="-59.8590966560898" fill="blue" r="2"/>
<circle cx="478.07105634525976" cy="-332.4427156577431" fill="blue" r="2"/>
<circle cx="433.7677723438258" cy="-170.5225142520282" fill="blue" r="2"/>
<circle cx="238.91374600739402" cy="-335.8045658598272" fill="blue" r="2"/>
<circle cx="383.595325289842" cy="-316.82507669977736" fill="blue" r="2"/>
<circle cx="65.75497521867564" cy="-10.438471176099702" fill="blue" r="2"/>
<circle cx="94.5707971558491" cy="-57.09763912899246" fill="blue" r="2"/>
<circle cx="96.78230403880536" cy="-168.0991716981454" fill="blue" r="2"/>
<circle cx="137.65623834663418" cy="-23.02526899867155" fill="blue" r="2"/>
<circle cx="381.50331075405734" cy="-262.2115378664627" fill="blue" r="2"/>
<circle cx="389.31165459795636" cy="-240.20659553535666" fill="blue" r="2"/>
<circle cx="355.257659250624" cy="-42.92107508777925" fill="blue" r="2"/>
<circle cx="223.2045769486229" cy="-311.7984657287598" fill="blue" r="2"/>
<circle cx="268.0991092868379" cy="-328.10004699640353" fill="blue" r="2"/>
<circle cx="165.13659186423467" cy="-168.68801855886872" fill="blue" r="2"/>
<circle cx="195.07985228550388" cy="-37.05482395162073" fill="blue" r="2"/>
<circle cx="456.21967676441835" cy="-264.1320057978448" fill="blue" r="2"/>
<circle cx="387.60988439455423" cy="-138.19733071290034" fill="blue" r="2"/>
<circle cx="52.96035659859079" cy="-298.36327182700796" fill="blue" r="2"/>
<circle cx="184.03002748271552" cy="-290.3717481083701" fill="blue" r="2"/>
<circle cx="440.409826376134" cy="-238.40513143039948" fill="blue" r="2"/>
<circle cx="14.703615715164666" cy="-325.79048111078833" fill="blue" r="2"/>
<circle cx="127.2215744392711" cy="-97.36655479729427" fill="blue" r="2"/>
<circle cx="385.5782425696466" cy="-229.1914790150327" fill="blue" r="2"/>
<circle cx="164.9500631963474" cy="-201.37594634372095" fill="blue" r="2"/>
<circle cx="224.67372287353385" cy="-205.91415910362647" fill="blue" r="2"/>
<circle cx="142.89844710646545" cy="-306.7704359800421" fill="blue" r="2"/>
<circle cx="346.70726002454364" cy="-148.5304801592552" fill="blue" r="2"/>
<circle cx="341.094893957935" cy="-112.35930891736535" fill="blue" r="2"/>
<circle cx="209.59059202300347" cy="-78.57383039828902" fill="blue" r="2"/>
<circle cx="267.72333587608205" cy="-241.553749382813" fill="blue" r="2"/>
<circle cx="237.10934975592497" cy="-273.1733202980488" fill="blue" r="2"/>
<circle cx="361.09480230940363" cy="-23.841869143637716" fill="blue" r="2"/>
<circle cx="384.57025344055927" cy="-66.68167720023612" fill="blue" r="2"/>
<circle cx="170.8052882891875" cy="-154.27668759422033" fill="blue" r="2"/>
<circle cx="52.320048714339755" cy="-86.82098696338531" fill="blue" r="2"/>
<circle cx="291.69471933227504" cy="-225.21614492588603" fill="blue" r="2"/>
<circle cx="275.95716614576577" cy="-252.93557158508168" fill="blue" r="2"/>
<circle cx="50.113819938160944" cy="-98.18954689356677" fill="blue" r="2"/>
<circle cx="440.9564938141596" cy="-179.3221527363925" fill="blue" r="2"/>
<circle cx="207.69539301624536" cy="-112.50461778409394" fill="blue" r="2"/>
<circle cx="69.3797269352023" cy="-308.7985127011076" fill="blue" r="2"/>
<circle cx="1.916478880597552" cy="-97.962947098316" fill="blue" r="2"/>
<circle cx="296.7887610894485" cy="-295.30316859892565" fill="blue" r="2"/>
<circle cx="395.9822450245113" cy="-165.4838161214583" fill="blue" r="2"/>
<circle cx="41.09207172303048" cy="-9.121202077385796" fill="blue" r="2"/>
<circle cx="348.18913200262773" cy="-248.0368630800009" fill="blue" r="2"/>
<circle cx="258.28192126315173" cy="-82.72704339704526" fill="blue" r="2"/>
<circle cx="389.9785265345331" cy="-146.00862758584898" fill="blue" r="2"/>
<circle cx="6.010652859099146" cy="-178.4663085745291" fill="blue" r="2"/>
<circle cx="311.41383425871436" cy="-321.20101078801775" fill="blue" r="2"/>
<circle cx="266.08864605309384" cy="-247.15217646365448" fill="blue" r="2"/>
<circle cx="178.3834452751627" cy="-212.65696270077996" fill="blue" r="2"/>
<circle cx="77.1435412588719" cy="-35.03607496354935" fill="blue" r="2"/>
<circle cx="420.3179822680675" cy="-79.95455678772615" fill="blue" r="2"/>
<circle cx="82.89382397929849" cy="-334.27545121282753" fill="blue" r="2"/>
<circle cx="8.088852849461468" cy="-99.68485244223426" fill="blue" r="2"/>
<circle cx="200.17531087818804" cy="-278.1705770146412" fill="blue" r="2"/>
<circle cx="132.1838809894095" cy="-210.09660864791164" fill="blue" r="2"/>
<circle cx="477.334103986471" cy="-23.004342447448458" fill="blue" r="2"/>
<circle cx="214.1090835286386" cy="-51.23119558153556" fill="blue" r="2"/>
<circle cx="52.168440734356594" cy="-337.7213530863568" fill="blue" r="2"/>
<circle cx="354.6130322801551" cy="-105.64652443475201" fill="blue" r="2"/>
<circle cx="211.6901121368026" cy="-234.03962588569075" fill="blue" r="2"/>
<circle cx="369.4151641378248" cy="-186.8024640968727" fill="blue" r="2"/>
<circle cx="150.19739883785857" cy="-32.928778119557734" fill="blue" r="2"/>
<circle cx="273.5136520502335" cy="-129.61550741123787" fill="blue" r="2"/>
<circle cx="175.93842615879345" cy="-65.39825632043502" fill="blue" r="2"/>
<circle cx="216.38546961051333" cy="-101.86364526074834" fill="blue" r="2"/>
<circle cx="192.60294401821315" cy="-278.93786158029565" fill="blue" r="2"/>
<circle cx="85.8519567063978" cy="-13.46858836896823" fill="blue" r="2"/>
<circle cx="298.5892126110256" cy="-280.7917497935292" fill="blue" r="2"/>
<circle cx="308.07761679038896" cy="-168.8706008503676" fill="blue" r="2"/>
<circle cx="81.59289241043773" cy="-260.20913689859486" fill="blue" r="2"/>
<circle cx="426.2112363931139" cy="-10.44220768859863" fill="blue" r="2"/>
<circle cx="399.5150775365233" cy="-171.2723069133557" fill="blue" r="2"/>
<circle cx="24.081025327689964" cy="-186.780890832969" fill="blue" r="2"/>
<circle cx="440.94322107248246" cy="-52.473664175328324" fill="blue" r="2"/>
<circle cx="222.2442499596136" cy="-276.36128609257804" fill="blue" r="2"/>
<circle cx="418.55700162708393" cy="-96.9907259320886" fill="blue" r="2"/>
<circle cx="244.96357571722032" cy="-247.89485976162706" fill="blue" r="2"/>
<circle cx="158.27059828778548" cy="-27.72900460291074" fill="blue" r="2"/>
<circle cx="167.99379900465317" cy="-89.31653778889493" fill="blue" r="2"/>
<circle cx="95.32729652975715" cy="-176.6506786214071" fill="blue" r="2"/>
<circle cx="342.3585061352345" cy="-66.89672831222724" fill="blue" r="2"/>
<circle cx="44.84757507190395" cy="-174.3768758621094" fill="blue" r="2"/>
<circle cx="292.242650033993" cy="-139.23391140004773" fill="blue" r="2"/>
<circle cx="231.65117425464416" cy="-232.10840400954737" fill="blue" r="2"/>
<circle cx="175.34829056578477" cy="-211.80645550312295" fill="blue" r="2"/>
<circle cx="212.61969056641607" cy="-143.41227124475307" fill="blue" r="2"/>
<circle cx="68.75698101786878" cy="-118.64629629921878" fill="blue" r="2"/>
<circle cx="211.89039846621307" cy="-291.9753589821959" fill="blue" r="2"/>
<circle cx="347.6263507075024" cy="-193.86918425130807" fill="blue" r="2"/>
<circle cx="331.0766739247473" cy="-197.62472668750462" fill="blue" r="2"/>
<circle cx="440.82031373470903" cy="-321.8093278562472" fill="blue" r="2"/>
<circle cx="47.10607163680837" cy="-99.90334141930724" fill="blue" r="2"/>
<circle cx="371.6529998644177" cy="-317.2610116451562" fill="blue" r="2"/>
<circle cx="147.5320395056794" cy="-128.49382842236972" fill="blue" r="2"/>
<circle cx="37.82458147120089" cy="-39.280513884333324" fill="blue" r="2"/>
<circle cx="369.3952494215788" cy="-259.01219980950316" fill="blue" r="2"/>
<circle cx="236.27470278792293" cy="-147.54982195088172" fill="blue" r="2"/>
<circle cx="73.11503621708702" cy="-273.44986578847397" fill="blue" r="2"/>
<circle cx="183.55025759324408" cy="-45.869999176120444" fill="blue" r="2"/>
<circle cx="193.04828082572587" cy="-175.79466428242714" fill="blue" r="2"/>
<circle cx="416.6832822694543" cy="-330.2567186822915" fill="blue" r="2"/>
<circle cx="324.02036079796085" cy="-272.5353513718353" fill="blue" r="2"/>
<circle cx="370.53158119818886" cy="-309.2846764634931" fill="blue" r="2"/>
<circle cx="164.99759893698098" cy="-255.17987961442066" fill="blue" r="2"/>
<circle cx="0.9663123740600454" cy="-286.47567707844496" fill="blue" r="2"/>
<circle cx="463.096251654762" cy="-218.0417709196011" fill="blue" r="2"/>
<circle cx="2.0623083739233294" cy="-254.1189011961032" fill="blue" r="2"/>
<circle cx="413.9551603547747" cy="-24.0660367615739" fill="blue" r="2"/>
<circle cx="297.9482144369421" cy="-97.55999703558426" fill="blue" r="2"/>
<circle cx="171.95645087140863" cy="-195.05784532307118" fill="blue" r="2"/>
<circle cx="185.57099754221298" cy="-113.16492457712799" fill="blue" r="2"/>
<circle cx="193.22759029470973" cy="-181.24559468783832" fill="blue" r="2"/>
<circle cx="164.06522098056385" cy="-58.56612300254785" fill="blue" r="2"/>
<circle cx="89.23546790375326" cy="-309.23443469311246" fill="blue" r="2"/>
<circle cx="123.85623603396613" cy="-242.3838762826402" fill="blue" r="2"/>
<circle cx="437.8416410197171" cy="-281.5372100937846" fill="blue" r="2"/>
<circle cx="81.20680952504081" cy="-30.880705793018738" fill="blue" r="2"/>
<circle cx="368.51091794195645" cy="-141.78082361411435" fill="blue" r="2"/>
<circle cx="322.1343515645202" cy="-137.75356178751048" fill="blue" r="2"/>
<circle cx="147.5506580710662" cy="-325.7671711168733" fill="blue" r="2"/>
<circle cx="332.59084598944816" cy="-268.15381067540307" fill="blue" r="2"/>
<circle cx="230.9211399921022" cy="-82.10460119198675" fill="blue" r="2"/>
<circle cx="459.18795750687775" cy="-128.47946696065338" fill="blue" r="2"/>
<circle cx="474.6032440025644" cy="-291.42543142976467" fill="blue" r="2"/>
<circle cx="237.93031713526835" cy="-177.39981334948456" fill="blue" r="2"/>
<circle cx="149.62028954842637" cy="-276.79755995741954" fill="blue" r="2"/>
<circle cx="276.7966428974886" cy="-266.0185595728197" fill="blue" r="2"/>
<circle cx="145.98431195106147" cy="-65.41069667731799" fill="blue" r="2"/>
<circle cx="378.42422413991414" cy="-34.91415193873068" fill="blue" r="2"/>
<circle cx="61.551853880963705" cy="-58.782629677527474" fill="blue" r="2"/>
<circle cx="151.4755024493549" cy="-42.305791266827114" fill="blue" r="2"/>
<circle cx="313.23677587154475" cy="-103.4894384780108" fill="blue" r="2"/>
<circle cx="262.88881280068307" cy="-21.75072814205162" fill="blue" r="2"/>
<circle cx="255.49481387232748" cy="-238.8113184512706" fill="blue" r="2"/>
<circle cx="334.3564898047878" cy="-265.7858339015756" fill="blue" r="2"/>
<circle cx="1.3503921426531207" cy="-137.5228866648024" fill="blue" r="2"/>
<circle cx="220.08016805721024" cy="-101.01959243490361" fill="blue" r="2"/>
<circle cx="152.8642344853423" cy="-125.7858173734182" fill="blue" r="2"/>
<circle cx="383.4259358894534" cy="-229.35274419186348" fill="blue" r="2"/>
<circle cx="439.52438642151526" cy="-195.27702238807316" fill="blue" r="2"/>
<circle cx="368.2355717229332" cy="-138.54042805151266" fill="blue" r="2"/>
<circle cx="259.55347940141513" cy="-336.39295322114396" fill="blue" r="2"/>
<circle cx="232.31566245010984" cy="-129.04758647266004" fill="blue" r="2"/>
<circle cx="239.95745779553732" cy="-257.4833752345435" fill="blue" r="2"/>
<circle cx="267.9956177170556" cy="-120.36245207273576" fill="blue" r="2"/>
<circle cx="60.42552679639108" cy="-138.1761297852947" fill="blue" r="2"/>
<circle cx="443.40639268945154" cy="-3.995433303711269" fill="blue" r="2"/>
<circle cx="292.6073537148841" cy="-111.02675980371916" fill="blue" r="2"/>
<circle cx="441.2275884914748" cy="-243.70531272746388" fill="blue" r="2"/>
<circle cx="425.68411818059764" cy="-278.6469228721077" fill="blue" r="2"/>
<circle cx="28.08150579486714" cy="-169.9189076902266" fill="blue" r="2"/>
<circle cx="88.12458253266686" cy="-107.33156185736705" fill="blue" r="2"/>
<circle cx="102.22075113495116" cy="-223.270033434249" fill="blue" r="2"/>
<circle cx="359.9058983617994" cy="-120.15468554239695" fill="blue" r="2"/>
<circle cx="208.89887827401253" cy="-73.80170286957065" fill="blue" r="2"/>
<circle cx="466.21950384320496" cy="-71.18157266554203" fill="blue" r="2"/>
<circle cx="148.75464543449687" cy="-75.75433353172218" fill="blue" r="2"/>
<circle cx="456.01922283749497" cy="-102.48848667319402" fill="blue" r="2"/>
<circle cx="48.60928789075359" cy="-270.21353395294403" fill="blue" r="2"/>
<circle cx="362.21345472850254" cy="-151.57135571930763" fill="blue" r="2"/>
<circle cx="340.3142203156041" cy="-178.90186551621915" fill="blue" r="2"/>
<circle cx="403.78509917906746" cy="-175.3505731136768" fill="blue" r="2"/>
<circle cx="182.5669819464639" cy="-31.080222864175173" fill="blue" r="2"/>
<circle cx="473.74228441871526" cy="-220.8590654646815" fill="blue" r="2"/>
<circle cx="329.4080219805567" cy="-223.47298081920226" fill="blue" r="2"/>
<circle cx="7.692534347192499" cy="-165.76657331186686" fill="blue" r="2"/>
<circle cx="397.8913864529294" cy="-177.91993130551188" fill="blue" r="2"/>
<circle cx="358.4262865299061" cy="-95.99305937488666" fill="blue" r="2"/>
<circle cx="139.96142718459834" cy="-100.69685037941842" fill="blue" r="2"/>
<circle cx="297.1969867567327" cy="-179.06573433636453" fill="blue" r="2"/>
<circle cx="0.840951446615108" cy="-317.71580613274125" fill="blue" r="2"/>
<circle cx="245.16830607040504" cy="-50.63898696997684" fill="blue" r="2"/>
<circle cx="188.9711238649484" cy="-207.97203035109766" fill="blue" r="2"/>
<circle cx="398.91633504704816" cy="-312.6259064527174" fill="blue" r="2"/>
<circle cx="219.61321059429764" cy="-293.8693200306171" fill="blue" r="2"/>
<circle cx="347.7772533631602" cy="-205.48342598476466" fill="blue" r="2"/>
<circle cx="348.3912394782587" cy="-30.25220689033447" fill="blue" r="2"/>
<circle cx="175.4224744180156" cy="-129.0929347489817" fill="blue" r="2"/>
<circle cx="450.6203552284632" cy="-288.80022894754995" fill="blue" r="2"/>
<circle cx="226.29615474932757" cy="-37.05332565991292" fill="blue" r="2"/>
<circle cx="314.6731142442839" cy="-20.294343768295665" fill="blue" r="2"/>
<circle cx="216.10293431487213" cy="-160.64347812588778" fill="blue" r="2"/>
<circle cx="436.31882480809014" cy="-50.809981055882815" fill="blue" r="2"/>
<circle cx="154.8053432845261" cy="-196.80486730382285" fill="blue" r="2"/>
<circle cx="449.35262074305604" cy="-4.853936212383085" fill="blue" r="2"/>
<circle cx="79.87494316028022" cy="-110.41039293725561" fill="blue" r="2"/>
<circle cx="478.92212012823177" cy="-110.52730224696484" fill="blue" r="2"/>
<circle cx="296.3570309275996" cy="-247.4701013747653" fill="blue" r="2"/>
<circle cx="129.90055831425525" cy="-302.43209075804845" fill="blue" r="2"/>
<circle cx="453.4728427084186" cy="-319.7685433407243" fill="blue" r="2"/>
<circle cx="84.08348927986336" cy="-148.13015302021492" fill="blue" r="2"/>
<circle cx="111.45359251846361" cy="-196.68750485644665" fill="blue" r="2"/>
<circle cx="91.36232506786726" cy="-301.21306948707985" fill="blue" r="2"/>
<circle cx="318.5946882849571" cy="-220.40035872197362" fill="blue" r="2"/>
<circle cx="183.61063217761335" cy="-249.66009621738516" fill="blue" r="2"/>
<circle cx="209.17657718339956" cy="-61.18154978528305" fill="blue" r="2"/>
<circle cx="458.6546206614181" cy="-205.48925058818267" fill="blue" r="2"/>
<circle cx="30.39973172618975" cy="-154.42142292325605" fill="blue" r="2"/>
<circle cx="438.33469405610214" cy="-256.25185776276163" fill="blue" r="2"/>
<circle cx="247.1798549147516" cy="-332.08761527112586" fill="blue" r="2"/>
<circle cx="297.54269876593605" cy="-211.94411528248915" fill="blue" r="2"/>
<circle cx="467.75007844747205" cy="-313.05559981012163" fill="blue" r="2"/>
<circle cx="177.63355487497654" cy="-172.75967124142053" fill="blue" r="2"/>
<circle cx="186.01902458314723" cy="-300.90044054830076" fill="blue" r="2"/>
<circle cx="326.06959623324803" cy="-303.5676676264684" fill="blue" r="2"/>
<circle cx="458.21083212538633" cy="-110.8504787917895" fill="blue" r="2"/>
<circle cx="347.47431380630593" cy="-183.4854068892261" fill="blue" r="2"/>
<circle cx="418.43468436579894" cy="-4.784927588207486" fill="blue" r="2"/>
<circle cx="73.92688382491005" cy="-136.0676751121455" fill="blue" r="2"/>
<circle cx="411.8732133304742" cy="-146.64430353910336" fill="blue" r="2"/>
<circle cx="438.51976312472266" cy="-175.58408122889887" fill="blue" r="2"/>
<circle cx="140.29343445294313" cy="-119.31737860821474" fill="blue" r="2"/>
<circle cx="379.56828497674286" cy="-243.79332258227058" fill="blue" r="2"/>
<circle cx="287.31156724793374" cy="-187.57512342425662" fill="blue" r="2"/>
<circle cx="270.45379643326737" cy="-63.609727294069316" fill="blue" r="2"/>
<circle cx="380.0753281704144" cy="-35.79239931838221" fill="blue" r="2"/>
<circle cx="35.16781335000594" cy="-250.22042852034087" fill="blue" r="2"/>
<circle cx="465.1058561235086" cy="-0.986144366372872" fill="blue" r="2"/>
<circle cx="259.42116439113215" cy="-266.59821065223355" fill="blue" r="2"/>
<circle cx="448.6428642235214" cy="-64.0340053490262" fill="blue" r="2"/>
<circle cx="207.25601838256432" cy="-274.1067137658078" fill="blue" r="2"/>
<circle cx="305.5252400571912" cy="-137.45651882096305" fill="blue" r="2"/>
<circle cx="168.53271725016552" cy="-224.18075680410627" fill="blue" r="2"/>
<circle cx="49.489558068348565" cy="-144.90112695851712" fill="blue" r="2"/>
<circle cx="438.7582043409165" cy="-219.22833762675387" fill="blue" r="2"/>
<circle cx="304.69731500349474" cy="-81.57683138768064" fill="blue" r="2"/>
<circle cx="202.3004633607347" cy="-90.54537667847674" fill="blue" r="2"/>
<circle cx="462.1397818345851" cy="-49.73979171515914" fill="blue" r="2"/>
<circle cx="240.38324312643934" cy="-38.7817254333214" fill="blue" r="2"/>
<circle cx="86.04679819637272" cy="-318.0162093747635" fill="blue" r="2"/>
<circle cx="350.26559717319674" cy="-294.02079728224834" fill="blue" r="2"/>
<circle cx="287.49735731657046" cy="-303.488575631201" fill="blue" r="2"/>
<circle cx="0.8077148323213734" cy="-45.23833998326213" fill="blue" r="2"/>
<circle cx="192.34061658451182" cy="-106.83476811556558" fill="blue" r="2"/>
<circle cx="21.22769015649819" cy="-95.92482793322812" fill="blue" r="2"/>
<circle cx="325.5116556942093" cy="-239.80839439242433" fill="blue" r="2"/>
<circle cx="252.81692221647427" cy="-296.98369620106536" fill="blue" r="2"/>
<circle cx="454.2461366194677" cy="-302.7408940608631" fill="blue" r="2"/>
<circle cx="295.5444034906957" cy="-175.68795752875516" fill="blue" r="2"/>
<circle cx="153.19173760335363" cy="-334.92178047879656" fill="blue" r="2"/>
<circle cx="59.31054500636922" cy="-36.43463739492652" fill="blue" r="2"/>
<circle cx="254.80419019218073" cy="-176.86801298609188" fill="blue" r="2"/>
<circle cx="349.23574242359257" cy="-189.137938266616" fill="blue" r="2"/>
<circle cx="304.87942512960956" cy="-43.65602423808096" fill="blue" r="2"/>
<circle cx="359.26990463289036" cy="-188.79220722035015" fill="blue" r="2"/>
<circle cx="18.583898945433504" cy="-45.17959346671078" fill="blue" r="2"/>
<circle cx="110.40419163175848" cy="-198.26928253149077" fill="blue" r="2"/>
<circle cx="177.98001890391373" cy="-121.92784022391959" fill="blue" r="2"/>
<circle cx="227.75767153938523" cy="-82.92758955673197" fill="blue" r="2"/>
<circle cx="162.43593003399607" cy="-183.08490059146789" fill="blue" r="2"/>
<circle cx="165.96141175157345" cy="-2.825130781589489" fill="blue" r="2"/>
<circle cx="20.373298140354272" cy="-139.89739494488776" fill="blue" r="2"/>
<circle cx="370.1748812694077" cy="-187.24171436089495" fill="blue" r="2"/>
<circle cx="239.5538475067519" cy="-157.4895822389522" fill="blue" r="2"/>
<circle cx="11.780891864324374" cy="-305.9499997118802" fill="blue" r="2"/>
<circle cx="300.5437708700929" cy="-267.9101008678614" fill="blue" r="2"/>
<circle cx="192.3278672382497" cy="-106.29961319983826" fill="blue" r="2"/>
<circle cx="190.25673279318138" cy="-14.27073375925545" fill="blue" r="2"/>
<circle cx="6.808461741557785" cy="-259.1970595524609" fill="blue" r="2"/>
<circle cx="357.8495735556696" cy="-246.95644813021332" fill="blue" r="2"/>
<circle cx="327.7288306632404" cy="-3.5329612773973063" fill="blue" r="2"/>
<circle cx="230.4901311771566" cy="-150.53144721040147" fill="blue" r="2"/>
<circle cx="387.4564187546363" cy="-301.87097879504245" fill="blue" r="2"/>
<circle cx="285.1853972859965" cy="-38.76674566495917" fill="blue" r="2"/>
<circle cx="7.99227037258909" cy="-97.89858954446208" fill="blue" r="2"/>
<circle cx="404.4975614798329" cy="-29.91550870094171" fill="blue" r="2"/>
<circle cx="62.82801741629026" cy="-103.17248900526022" fill="blue" r="2"/>
<circle cx="387.54870715874426" cy="-308.0943431509994" fill="blue" r="2"/>
<circle cx="338.0903993111538" cy="-32.2818230707527" fill="blue" r="2"/>
<circle cx="382.91105113796556" cy="-179.8729797550303" fill="blue" r="2"/>
<circle cx="276.9138376091151" cy="-179.76524628412142" fill="blue" r="2"/>
<circle cx="218.70184780590847" cy="-338.8808802389798" fill="blue" r="2"/>
<circle cx="100.46719073042027" cy="-151.50956353213948" fill="blue" r="2"/>
<circle cx="384.99428003192253" cy="-52.95453902673244" fill="blue" r="2"/>
<circle cx="299.18193048459125" cy="-285.4592765484496" fill="blue" r="2"/>
<circle cx="114.75873005528558" cy="-121.38186974357134" fill="blue" r="2"/>
<circle cx="245.64995774927246" cy="-67.85758484790581" fill="blue" r="2"/>
<circle cx="400.50169797740364" cy="-331.87488351033545" fill="blue" r="2"/>
<circle cx="8.565607134525983" cy="-293.8178562679207" fill="blue" r="2"/>
<circle cx="121.4530504544962" cy="-145.96238208261525" fill="blue" r="2"/>
<circle cx="311.73203997340005" cy="-54.80955089914997" fill="blue" r="2"/>
<circle cx="327.3061472168339" cy="-280.1115557795565" fill="blue" r="2"/>
<circle cx="134.8189009322256" cy="-178.08460253806342" fill="blue" r="2"/>
<circle cx="199.82651863593293" cy="-220.02092844201465" fill="blue" r="2"/>
<circle cx="28.50201905460615" cy="-331.5562155030497" fill="blue" r="2"/>
<circle cx="205.21431931528795" cy="-168.24581145624185" fill="blue" r="2"/>
<circle cx="245.47041987003664" cy="-270.56760434776646" fill="blue" r="2"/>
<circle cx="382.6089425469093" cy="-221.08820591440713" fill="blue" r="2"/>
<circle cx="250.8567287069019" cy="-0.03274870657818063" fill="blue" r="2"/>
<circle cx="15.84966467083948" cy="-258.8816023940414" fill="blue" r="2"/>
<circle cx="265.84798427831106" cy="-283.3274640696128" fill="blue" r="2"/>
<circle cx="133.4811792582055" cy="-50.877226929935645" fill="blue" r="2"/>
<circle cx="262.6545233256662" cy="-324.565064841301" fill="blue" r="2"/>
<circle cx="380.01240726113514" cy="-168.22705634455926" fill="blue" r="2"/>
<circle cx="95.86212308792064" cy="-325.43445651078616" fill="blue" r="2"/>
<circle cx="149.68221105328524" cy="-214.5934695873699" fill="blue" r="2"/>
<circle cx="425.8485359733383" cy="-39.125480997662976" fill="blue" r="2"/>
<circle cx="97.49333656800246" cy="-95.39318481754547" fill="blue" r="2"/>
<circle cx="196.44015838797884" cy="-7.314352777967867" fill="blue" r="2"/>
<circle cx="411.4033255760415" cy="-181.10839465067156" fill="blue" r="2"/>
<circle cx="343.70378682466924" cy="-168.682565521069" fill="blue" r="2"/>
<circle cx="393.46852756174536" cy="-285.8570921541906" fill="blue" r="2"/>
<circle cx="105.21447372540979" cy="-300.15362514667856" fill="blue" r="2"/>
<circle cx="222.3628420870136" cy="-16.580674639210038" fill="blue" r="2"/>
<circle cx="479.64543593259856" cy="-143.03071882336874" fill="blue" r="2"/>
<circle cx="402.61907454340763" cy="-312.49297218044467" fill="blue" r="2"/>
<circle cx="168.8338493930165" cy="-204.13743648732478" fill="blue" r="2"/>
<circle cx="254.0808880324912" cy="-112.91250802775947" fill="blue" r="2"/>
<circle cx="160.46372086678576" cy="-96.58232966497555" fill="blue" r="2"/>
<circle cx="402.97565598217557" cy="-244.89666672061392" fill="blue" r="2"/>
<circle cx="145.64462763173572" cy="-179.32864966675987" fill="blue" r="2"/>
<circle cx="448.41780673921227" cy="-170.3719011524159" fill="blue" r="2"/>
<circle cx="319.6092171915205" cy="-323.5128866859726" fill="blue" r="2"/>
<circle cx="256.5828501489782" cy="-279.87806725223203" fill="blue" r="2"/>
<circle cx="204.54851606318886" cy="-254.42065450685527" fill="blue" r="2"/>
<circle cx="281.69730250972964" cy="-152.15479655926046" fill="blue" r="2"/>
<circle cx="304.378531917364" cy="-201.22963214768845" fill="blue" r="2"/>
<circle cx="265.20476373632124" cy="-77.51077265514209" fill="blue" r="2"/>
<circle cx="443.91968519463404" cy="-265.54272512050954" fill="blue" r="2"/>
<circle cx="300.06334035260386" cy="-91.43116681587823" fill="blue" r="2"/>
<circle cx="156.4228771536224" cy="-299.686304678994" fill="blue" r="2"/>
<circle cx="151.1470185896586" cy="-230.31046387066104" fill="blue" r="2"/>
<circle cx="469.5077440890806" cy="-129.86526798826506" fill="blue" r="2"/>
<circle cx="402.46436061378165" cy="-224.4632209315842" fill="blue" r="2"/>
<circle cx="88.52865005711486" cy="-37.60716199673337" fill="blue" r="2"/>
<circle cx="283.9229243575538" cy="-266.8066380266252" fill="blue" r="2"/>
<circle cx="113.18629618486156" cy="-145.67102965275456" fill="blue" r="2"/>
<circle cx="65.00564534397131" cy="-274.6438601288362" fill="blue" r="2"/>
<circle cx="123.10965639645755" cy="-249.1805068554928" fill="blue" r="2"/>
<circle cx="44.02941277614165" cy="-79.46078589149043" fill="blue" r="2"/>
<circle cx="368.15567184071415" cy="-327.3308415355178" fill="blue" r="2"/>
<circle cx="7.844191073888354" cy="-73.22453402928915" fill="blue" r="2"/>
<circle cx="447.80768943242253" cy="-80.46254859979787" fill="blue" r="2"/>
<circle cx="432.7154515210901" cy="-297.21894968424493" fill="blue" r="2"/>
<circle cx="235.3452082378284" cy="-198.75181110570955" fill="blue" r="2"/>
<circle cx="215.08092789644823" cy="-323.4913872773903" fill="blue" r="2"/>
<circle cx="439.8374587866656" cy="-285.787961162255" fill="blue" r="2"/>
<circle cx="324.5905894978619" cy="-292.6585973061317" fill="blue" r="2"/>
<circle cx="388.98003542512066" cy="-322.48727257415334" fill="blue" r="2"/>
<circle cx="108.06338323261343" cy="-61.25606044552354" fill="blue" r="2"/>
<circle cx="291.85392256988155" cy="-308.840173101723" fill="blue" r="2"/>
<circle cx="440.9864071342243" cy="-243.63222693174194" fill="blue" r="2"/>
<circle cx="53.78179395223846" cy="-104.52440049711505" fill="blue" r="2"/>
<circle cx="37.87910899248107" cy="-103.31794941199102" fill="blue" r="2"/>
<circle cx="221.58366586556" cy="-112.25075187375309" fill="blue" r="2"/>
<circle cx="348.7490880206834" cy="-198.7155084508305" fill="blue" r="2"/>
<circle cx="352.4089131110558" cy="-205.54203379939628" fill="blue" r="2"/>
<circle cx="191.3531149065389" cy="-199.36905361905556" fill="blue" r="2"/>
<circle cx="309.00029009432853" cy="-58.496218319427754" fill="blue" r="2"/>
<circle cx="17.591974010337346" cy="-49.879792182721914" fill="blue" r="2"/>
<circle cx="288.2427186555612" cy="-110.99769072446033" fill="blue" r="2"/>
<circle cx="213.40127995296217" cy="-291.90260211843764" fill="blue" r="2"/>
<circle cx="308.3042658830737" cy="-236.99689835382026" fill="blue" r="2"/>
<circle cx="54.350554696215916" cy="-150.37018611336177" fill="blue" r="2"/>
<circle cx="309.5506536370757" cy="-203.337905873753" fill="blue" r="2"/>
<circle cx="28.669476235582003" cy="-117.44944659992365" fill="blue" r="2"/>
<circle cx="384.9628651040807" cy="-3.4914543860744196" fill="blue" r="2"/>
<circle cx="70.28534663274539" cy="-118.50244455919808" fill="blue" r="2"/>
<circle cx="172.03379012793113" cy="-196.5656875436644" fill="blue" r="2"/>
<circle cx="173.6412525981579" cy="-256.66811535747706" fill="blue" r="2"/>
<circle cx="211.97551503147423" cy="-290.045273100992" fill="blue" r="2"/>
<circle cx="230.93830949762162" cy="-321.8402002451671" fill="blue" r="2"/>
<circle cx="60.394376410152084" cy="-265.12470699512875" fill="blue" r="2"/>
<circle cx="128.26663427926917" cy="-259.14244653040595" fill="blue" r="2"/>
<circle cx="167.38789885891012" cy="-206.4444472906763" fill="blue" r="2"/>
<circle cx="152.29304911200035" cy="-332.6883692183367" fill="blue" r="2"/>
<circle cx="294.5391956611353" cy="-227.4434170842769" fill="blue" r="2"/>
<circle cx="318.64676708396667" cy="-147.50477486139027" fill="blue" r="2"/>
<circle cx="40.963583958007774" cy="-270.4065867908861" fill="blue" r="2"/>
<circle cx="16.063261413273224" cy="-130.01119178810438" fill="blue" r="2"/>
<circle cx="298.8792586077854" cy="-157.31583289269392" fill="blue" r="2"/>
<circle cx="138.77637657408604" cy="-8.045064761956358" fill="blue" r="2"/>
<circle cx="139.2996642534127" cy="-293.57569506666675" fill="blue" r="2"/>
<circle cx="64.3163245414458" cy="-171.04636003367776" fill="blue" r="2"/>
<circle cx="77.00157127844527" cy="-109.49675827958109" fill="blue" r="2"/>
<circle cx="237.46191019984565" cy="-188.1833492860799" fill="blue" r="2"/>
<circle cx="263.1243035511467" cy="-108.76657365644724" fill="blue" r="2"/>
<circle cx="52.10181067503129" cy="-239.39140326033868" fill="blue" r="2"/>
<circle cx="96.2957277310191" cy="-337.4402309457906" fill="blue" r="2"/>
<circle cx="471.588322145922" cy="-200.74690411962956" fill="blue" r="2"/>
<circle cx="276.3628934760321" cy="-156.00573501211358" fill="blue" r="2"/>
<circle cx="259.55349087765364" cy="-2.5938222044398707" fill="blue" r="2"/>
<circle cx="195.61909179348905" cy="-289.93699903934936" fill="blue" r="2"/>
<circle cx="63.448651489725414" cy="-60.71998782141878" fill="blue" r="2"/>
<circle cx="15.118821902528516" cy="-262.3483077643787" fill="blue" r="2"/>
<circle cx="109.94230953120496" cy="-48.233492654548286" fill="blue" r="2"/>
<circle cx="429.0587213021228" cy="-142.9797017185789" fill="blue" r="2"/>
<circle cx="311.74197271783703" cy="-209.08115934944445" fill="blue" r="2"/>
<circle cx="110.03191306018032" cy="-128.9926291935884" fill="blue" r="2"/>
<circle cx="40.845158432295214" cy="-240.54954837735113" fill="blue" r="2"/>
<circle cx="12.01050687595334" cy="-134.43510017293715" fill="blue" r="2"/>
<circle cx="2.492839871285817" cy="-158.20719957709238" fill="blue" r="2"/>
<circle cx="50.26978009283237" cy="-94.54438597649032" fill="blue" r="2"/>
<circle cx="342.3992376761323" cy="-205.4302121501059" fill="blue" r="2"/>
<circle cx="10.761311747326374" cy="-327.32999899963886" fill="blue" r="2"/>
<circle cx="398.18584755000427" cy="-309.61110404757744" fill="blue" r="2"/>
<circle cx="47.79077760941046" cy="-328.14644323629403" fill="blue" r="2"/>
<circle cx="166.5966246633653" cy="-10.200897562706208" fill="blue" r="2"/>
<circle cx="428.54275714927763" cy="-69.10951803755172" fill="blue" r="2"/>
<circle cx="459.4725041503765" cy="-52.38816787017506" fill="blue" r="2"/>
<circle cx="109.21499855720594" cy="-47.71080211367825" fill="blue" r="2"/>
<circle cx="374.50479787306506" cy="-202.33021346938907" fill="blue" r="2"/>
<circle cx="236.99533056380278" cy="-45.41316439021" fill="blue" r="2"/>
<circle cx="360.0804174466701" cy="-56.322318599179056" fill="blue" r="2"/>
<circle cx="57.38169996550532" cy="-36.340564796861955" fill="blue" r="2"/>
<circle cx="192.60957271469522" cy="-329.4175367531346" fill="blue" r="2"/>
<circle cx="260.6002166049889" cy="-103.62357517761934" fill="blue" r="2"/>
<circle cx="236.8128657889992" cy="-150.91074300817675" fill="blue" r="2"/>
<circle cx="251.38116062863622" cy="-220.21606719676873" fill="blue" r="2"/>
<circle cx="333.767023050309" cy="-254.45693281370495" fill="blue" r="2"/>
<circle cx="64.49887814775269" cy="-121.71058698025871" fill="blue" r="2"/>
<circle cx="167.79796672181664" cy="-292.60150354951463" fill="blue" r="2"/>
<circle cx="107.11414863902891" cy="-57.809755648303785" fill="blue" r="2"/>
<circle cx="165.9987073312698" cy="-160.3837908159135" fill="blue" r="2"/>
<circle cx="327.77362294791664" cy="-161.13577420438196" fill="blue" r="2"/>
<circle cx="136.07389244639808" cy="-55.55109030805196" fill="blue" r="2"/>
<circle cx="338.46712160751906" cy="-274.7328890864849" fill="blue" r="2"/>
<circle cx="446.0683972739362" cy="-75.3896452111148" fill="blue" r="2"/>
<circle cx="386.5750314343161" cy="-27.205759072985437" fill="blue" r="2"/>
<circle cx="109.8093435898096" cy="-288.1634324466999" fill="blue" r="2"/>
<circle cx="426.6734278716707" cy="-36.116957843030704" fill="blue" r="2"/>
<circle cx="391.0780481120215" cy="-292.12166943728823" fill="blue" r="2"/>
<circle cx="264.3100890214654" cy="-60.76733643285736" fill="blue" r="2"/>
<circle cx="304.7976001201169" cy="-93.9829636536005" fill="blue" r="2"/>
<circle cx="320.4209339033824" cy="-146.62460596810615" fill="blue" r="2"/>
<circle cx="105.78730866321149" cy="-110.75129394941169" fill="blue" r="2"/>
<circle cx="128.8869384033094" cy="-125.42350352398361" fill="blue" r="2"/>
<circle cx="419.6568083529355" cy="-9.605608735183795" fill="blue" r="2"/>
<circle cx="204.15244622656562" cy="-187.84732581489516" fill="blue" r="2"/>
<circle cx="455.8487205499031" cy="-267.59395885976045" fill="blue" r="2"/>
<circle cx="103.82059961392933" cy="-287.25032680619637" fill="blue" r="2"/>
<circle cx="449.1965763758983" cy="-216.90115992513597" fill="blue" r="2"/>
<circle cx="190.1894506109225" cy="-142.84480308887913" fill="blue" r="2"/>
<circle cx="410.1580160946215" cy="-216.56924397274196" fill="blue" r="2"/>
<circle cx="324.3712534521352" cy="-122.52816373269555" fill="blue" r="2"/>
<circle cx="194.38873547971866" cy="-269.4493519398977" fill="blue" r="2"/>
<circle cx="422.31185320506796" cy="-94.27850012193578" fill="blue" r="2"/>
<circle cx="384.97433324124904" cy="-45.77010751919761" fill="blue" r="2"/>
<circle cx="167.00413877486523" cy="-321.8167074663035" fill="blue" r="2"/>
<circle cx="211.646373470148" cy="-134.41256239955914" fill="blue" r="2"/>
<circle cx="205.56797419254116" cy="-278.5883731802728" fill="blue" r="2"/>
<circle cx="277.2329831871148" cy="-116.38278913732574" fill="blue" r="2"/>
<circle cx="373.0267616463761" cy="-257.9539166395669" fill="blue" r="2"/>
<circle cx="479.9059251163372" cy="-98.43272756022688" fill="blue" r="2"/>
<circle cx="271.4357294465358" cy="-125.47630205232825" fill="blue" r="2"/>
<circle cx="256.31473910649754" cy="-38.69036547230906" fill="blue" r="2"/>
<circle cx="231.7882206066565" cy="-216.67217354863138" fill="blue" r="2"/>
<circle cx="32.23450161315238" cy="-213.41547812743815" fill="blue" r="2"/>
<circle cx="362.46104255051785" cy="-118.09788041760295" fill="blue" r="2"/>
<circle cx="183.05939221253496" cy="-281.4426010063134" fill="blue" r="2"/>
<circle cx="358.3046938733792" cy="-276.5187658672674" fill="blue" r="2"/>
<circle cx="419.7537949900853" cy="-286.56359186132136" fill="blue" r="2"/>
<circle cx="224.31740486008158" cy="-313.76229997389504" fill="blue" r="2"/>
<circle cx="261.75279111482786" cy="-301.9719654278085" fill="blue" r="2"/>
<circle cx="250.9157123163713" cy="-112.80080636464044" fill="blue" r="2"/>
<circle cx="277.5705811248745" cy="-244.3438799141835" fill="blue" r="2"/>
<circle cx="111.5083098004365" cy="-63.75437755504538" fill="blue" r="2"/>
<circle cx="337.77428468922335" cy="-271.6840834210535" fill="blue" r="2"/>
<circle cx="18.64176371849272" cy="-128.25875714311903" fill="blue" r="2"/>
<circle cx="60.9934225330003" cy="-317.41697272680995" fill="blue" r="2"/>
<circle cx="280.2100228177371" cy="-10.523600681820469" fill="blue" r="2"/>
<circle cx="295.86209917847356" cy="-318.3219976284383" fill="blue" r="2"/>
<circle cx="398.336891219315" cy="-315.54179187038096" fill="blue" r="2"/>
<circle cx="350.32396049665726" cy="-96.67331369697" fill="blue" r="2"/>
<circle cx="116.9320859592387" cy="-36.351336604562626" fill="blue" r="2"/>
<circle cx="191.61449896996822" cy="-100.13022949220509" fill="blue" r="2"/>
<circle cx="59.06474153377182" cy="-312.8850161353357" fill="blue" r="2"/>
<circle cx="223.618842644449" cy="-239.95914383641562" fill="blue" r="2"/>
<circle cx="92.26320163731845" cy="-300.47953247751707" fill="blue" r="2"/>
<circle cx="61.040271879068264" cy="-60.55460403579418" fill="blue" r="2"/>
<circle cx="415.0721833684286" cy="-9.620515142555375" fill="blue" r="2"/>
<circle cx="240.52795792268253" cy="-111.76826475839962" fill="blue" r="2"/>
<circle cx="277.93596989464794" cy="-216.73281873491993" fill="blue" r="2"/>
<circle cx="77.43128671916341" cy="-73.62157512639243" fill="blue" r="2"/>
<circle cx="196.91015665871276" cy="-162.35643555344438" fill="blue" r="2"/>
<circle cx="324.0862819121557" cy="-240.07227565995095" fill="blue" r="2"/>
<circle cx="47.84431807093874" cy="-58.5906970510677" fill="blue" r="2"/>
<circle cx="136.00973898367332" cy="-304.6227778352664" fill="blue" r="2"/>
<circle cx="472.36311452364106" cy="-315.9109110163954" fill="blue" r="2"/>
<circle cx="278.2347866455408" cy="-282.5581652352421" fill="blue" r="2"/>
<circle cx="29.978702859284496" cy="-80.57161026187381" fill="blue" r="2"/>
<circle cx="10.438845133874572" cy="-218.8941150186514" fill="blue" r="2"/>
<circle cx="339.5951892580158" cy="-105.97931090049401" fill="blue" r="2"/>
<circle cx="78.55790541625353" cy="-265.0034655429654" fill="blue" r="2"/>
<circle cx="320.47248276197035" cy="-324.68846880034704" fill="blue" r="2"/>
<circle cx="239.69437845309858" cy="-42.40363883703818" fill="blue" r="2"/>
<circle cx="330.9721042654727" cy="-197.24698337083808" fill="blue" r="2"/>
<circle cx="203.29259830328306" cy="-302.01124126084346" fill="blue" r="2"/>
<circle cx="113.33063047988063" cy="-139.9496489824573" fill="blue" r="2"/>
<circle cx="149.52588056223732" cy="-33.9939078194102" fill="blue" r="2"/>
<circle cx="292.95105570095933" cy="-179.88886710299886" fill="blue" r="2"/>
<circle cx="12.857037600841963" cy="-8.378886628834227" fill="blue" r="2"/>
<circle cx="135.90280584551084" cy="-186.4203769886271" fill="blue" r="2"/>
<circle cx="443.4941079983332" cy="-187.59043012632276" fill="blue" r="2"/>
<circle cx="329.34533361199925" cy="-61.80110122808642" fill="blue" r="2"/>
<circle cx="12.59623246963642" cy="-253.01376671733865" fill="blue" r="2"/>
<circle cx="295.59348181262686" cy="-301.4630737224339" fill="blue" r="2"/>
<circle cx="214.23173347136512" cy="-154.77123806645167" fill="blue" r="2"/>
<circle cx="441.552556130647" cy="-190.0685364217022" fill="blue" r="2"/>
<circle cx="339.2242246360318" cy="-172.41503063980838" fill="blue" r="2"/>
<circle cx="298.88294438758953" cy="-112.13445242259372" fill="blue" r="2"/>
<circle cx="138.4693876362973" cy="-135.63348725743046" fill="blue" r="2"/>
<circle cx="168.39001615568148" cy="-128.55428122620995" fill="blue" r="2"/>
<circle cx="96.70970780248891" cy="-83.8157801787402" fill="blue" r="2"/>
<circle cx="46.80116859051754" cy="-57.28847305881925" fill="blue" r="2"/>
<circle cx="201.3843721017939" cy="-280.9414441413193" fill="blue" r="2"/>
<circle cx="229.7869075845" cy="-289.08734419968323" fill="blue" r="2"/>
<circle cx="468.4624459586304" cy="-223.87323669606417" fill="blue" r="2"/>
<circle cx="97.64752637979562" cy="-123.53218010944578" fill="blue" r="2"/>
<circle cx="107.56767335777631" cy="-21.4450244235356" fill="blue" r="2"/>
<circle cx="35.095745603600825" cy="-75.23801384411921" fill="blue" r="2"/>
<circle cx="179.08257933796511" cy="-130.55148640605606" fill="blue" r="2"/>
<circle cx="269.55200563677187" cy="-100.68182719337443" fill="blue" r="2"/>
<circle cx="38.495401918515846" cy="-240.86006476532873" fill="blue" r="2"/>
<circle cx="389.3422251239659" cy="-228.17178016295063" fill="blue" r="2"/>
<circle cx="17.97787899477097" cy="-304.1859021776704" fill="blue" r="2"/>
<circle cx="209.47067763864226" cy="-332.96747087150106" fill="blue" r="2"/>
<circle cx="329.93596019268426" cy="-134.2883495253476" fill="blue" r="2"/>
<circle cx="10.277252691017544" cy="-61.52796962018364" fill="blue" r="2"/>
<circle cx="441.58041684089307" cy="-163.88753811102936" fill="blue" r="2"/>
<circle cx="461.9683788425239" cy="-78.02164877216693" fill="blue" r="2"/>
<circle cx="164.9926365166307" cy="-200.59996981144835" fill="blue" r="2"/>
<circle cx="304.66811272773276" cy="-87.99467449571888" fill="blue" r="2"/>
<circle cx="197.32098312990246" cy="-145.2744152730578" fill="blue" r="2"/>
<circle cx="401.36997174806453" cy="-325.36178032936806" fill="blue" r="2"/>
<circle cx="243.8741380095972" cy="-16.741599836704392" fill="blue" r="2"/>
<circle cx="165.0233343326517" cy="-104.70072299229835" fill="blue" r="2"/>
<circle cx="452.1932924049525" cy="-33.876463765890755" fill="blue" r="2"/>
<circle cx="329.2759792545939" cy="-210.02494596315847" fill="blue" r="2"/>
<circle cx="308.58432772277786" cy="-106.03340317925665" fill="blue" r="2"/>
<circle cx="403.6474916635128" cy="-268.291995010139" fill="blue" r="2"/>
<circle cx="197.7961573359177" cy="-111.61926713526404" fill="blue" r="2"/>
<circle cx="103.80962316692553" cy="-207.49794018032327" fill="blue" r="2"/>
<circle cx="70.1916142942834" cy="-235.08718989289792" fill="blue" r="2"/>
<circle cx="406.01181769294095" cy="-47.43607834522195" fill="blue" r="2"/>
<circle cx="359.83478341463314" cy="-273.2723651982226" fill="blue" r="2"/>
<circle cx="276.86210768082225" cy="-185.83909450182418" fill="blue" r="2"/>
<circle cx="324.69093127996524" cy="-220.26851796840558" fill="blue" r="2"/>
<circle cx="197.1380523887118" cy="-54.41976133914426" fill="blue" r="2"/>
<circle cx="288.0652337132778" cy="-25.91169869671385" fill="blue" r="2"/>
<circle cx="29.906410979536027" cy="-317.17799159844304" fill="blue" r="2"/>
<circle cx="150.01732252907132" cy="-219.51101123613122" fill="blue" r="2"/>
<circle cx="312.5822764428981" cy="-295.57054636334954" fill="blue" r="2"/>
<circle cx="24.097810393184602" cy="-235.6398368097203" fill="blue" r="2"/>
<circle cx="328.91413762285003" cy="-57.50781476527625" fill="blue" r="2"/>
<circle cx="65.50117995052685" cy="-209.06941459999456" fill="blue" r="2"/>
<circle cx="63.44168802581688" cy="-172.22865930773574" fill="blue" r="2"/>
<circle cx="31.69848107161613" cy="-203.87710384870928" fill="blue" r="2"/>
<circle cx="157.54690766001588" cy="-10.052505628800006" fill="blue" r="2"/>
<circle cx="293.5241242784735" cy="-26.215923918596005" fill="blue" r="2"/>
<circle cx="150.72263062712406" cy="-221.0618708214634" fill="blue" r="2"/>
<circle cx="407.51531620814865" cy="-302.37536812692804" fill="blue" r="2"/>
<circle cx="193.7189742429652" cy="-77.49887691474912" fill="blue" r="2"/>
<circle cx="336.98682710194055" cy="-151.2466943407091" fill="blue" r="2"/>
<circle cx="384.90636582549325" cy="-218.72796907052336" fill="blue" r="2"/>
<circle cx="312.22686154586046" cy="-255.71405170690804" fill="blue" r="2"/>
<circle cx="179.77091995307705" cy="-263.7995364763232" fill="blue" r="2"/>
<circle cx="23.055511150631567" cy="-112.12470441156879" fill="blue" r="2"/>
<circle cx="368.978457456213" cy="-82.24078899522735" fill="blue" r="2"/>
<circle cx="158.55387917482605" cy="-150.248060450077" fill="blue" r="2"/>
<circle cx="226.32336043203154" cy="-329.46141676231565" fill="blue" r="2"/>
<circle cx="402.2740266787731" cy="-293.9144723450615" fill="blue" r="2"/>
<circle cx="408.2800823752364" cy="-184.82901581241092" fill="blue" r="2"/>
<circle cx="317.43934754675826" cy="-8.963126280956102" fill="blue" r="2"/>
<circle cx="297.11478073703336" cy="-244.03558804154238" fill="blue" r="2"/>
<circle cx="230.29009411529398" cy="-99.44549921617109" fill="blue" r="2"/>
<circle cx="274.787115917864" cy="-46.55008198739526" fill="blue" r="2"/>
<circle cx="244.67270144680595" cy="-59.03033765651294" fill="blue" r="2"/>
<circle cx="174.9679463499352" cy="-67.91318555819396" fill="blue" r="2"/>
<circle cx="158.60611610917417" cy="-208.15009201705223" fill="blue" r="2"/>
<circle cx="112.57234840117889" cy="-218.5048768128334" fill="blue" r="2"/>
<circle cx="340.93882259627884" cy="-317.2719389271919" fill="blue" r="2"/>
<circle cx="9.219317605746866" cy="-310.02947289881456" fill="blue" r="2"/>
<circle cx="463.499442913668" cy="-293.3302397900049" fill="blue" r="2"/>
<circle cx="318.9014265091492" cy="-134.90374796087514" fill="blue" r="2"/>
<circle cx="10.346058738147512" cy="-289.90263676666416" fill="blue" r="2"/>
<circle cx="366.834761495353" cy="-156.5655469191322" fill="blue" r="2"/>
<circle cx="170.12803676544735" cy="-52.1103590336412" fill="blue" r="2"/>
<circle cx="88.98510005051176" cy="-65.53293007444434" fill="blue" r="2"/>
<circle cx="30.260197246917464" cy="-65.6850164343899" fill="blue" r="2"/>
<circle cx="435.56936488441795" cy="-304.4766323443126" fill="blue" r="2"/>
<circle cx="398.7805956033441" cy="-155.43367565946835" fill="blue" r="2"/>
<circle cx="397.4676513127072" cy="-315.46465226276314" fill="blue" r="2"/>
<circle cx="76.71344646697864" cy="-123.24528582518072" fill="blue" r="2"/>
<circle cx="281.17084410863964" cy="-316.27399597113947" fill="blue" r="2"/>
<circle cx="288.88475878707135" cy="-99.6992157918181" fill="blue" r="2"/>
<circle cx="243.14215185870745" cy="-68.64995062991201" fill="blue" r="2"/>
<circle cx="118.1013921451597" cy="-0.23005709235910832" fill="blue" r="2"/>
<circle cx="306.3143954147395" cy="-170.41064069394855" fill="blue" r="2"/>
<circle cx="394.0382800268551" cy="-25.969718725109733" fill="blue" r="2"/>
<circle cx="193.31933838483826" cy="-338.2004852337498" fill="blue" r="2"/>
<circle cx="379.66010960555826" cy="-146.42575179213483" fill="blue" r="2"/>
<circle cx="127.10438077367037" cy="-69.4055565842583" fill="blue" r="2"/>
<circle cx="375.0504196148977" cy="-89.31505034593378" fill="blue" r="2"/>
<circle cx="33.49107932468414" cy="-127.99852482633416" fill="blue" r="2"/>
<circle cx="279.6150849849623" cy="-186.33562306125154" fill="blue" r="2"/>
<circle cx="340.70849603792635" cy="-127.18916558791898" fill="blue" r="2"/>
<circle cx="287.4870539953269" cy="-99.879426943169" fill="blue" r="2"/>
<circle cx="118.62428997470424" cy="-102.4232522612096" fill="blue" r="2"/>
<circle cx="280.1224661854095" cy="-306.1431466006191" fill="blue" r="2"/>
<circle cx="155.24346556943283" cy="-57.32486766400215" fill="blue" r="2"/>
<circle cx="322.03324894290733" cy="-197.36200023119775" fill="blue" r="2"/>
<circle cx="462.03898588288405" cy="-143.16807596062003" fill="blue" r="2"/>
<circle cx="132.4716402778052" cy="-0.9858597076884967" fill="blue" r="2"/>
<circle cx="168.8584242809715" cy="-316.66529298691944" fill="blue" r="2"/>
<circle cx="392.68626550436267" cy="-204.2776548129966" fill="blue" r="2"/>
<circle cx="15.660390015979466" cy="-254.2637623065937" fill="blue" r="2"/>
<circle cx="369.0345228673902" cy="-152.05698336613983" fill="blue" r="2"/>
<circle cx="246.1679586714527" cy="-220.97092093092843" fill="blue" r="2"/>
<circle cx="388.2249686306203" cy="-181.90492885985313" fill="blue" r="2"/>
<circle cx="154.92594843747491" cy="-161.05880503411174" fill="blue" r="2"/>
<circle cx="1.6093289050019166" cy="-304.3301798332804" fill="blue" r="2"/>
<circle cx="348.32833815629215" cy="-173.15909400735202" fill="blue" r="2"/>
<circle cx="407.97972604659947" cy="-99.62317662305877" fill="blue" r="2"/>
<circle cx="107.03324727537205" cy="-48.18342510483128" fill="blue" r="2"/>
<circle cx="225.5807618408861" cy="-118.88804223515865" fill="blue" r="2"/>
<circle cx="290.29649760358507" cy="-264.27792841652666" fill="blue" r="2"/>
<circle cx="460.8403095145318" cy="-320.6882837006749" fill="blue" r="2"/>
<circle cx="469.21197821201" cy="-305.52008662192935" fill="blue" r="2"/>
<circle cx="155.0967519872176" cy="-8.175974719611329" fill="blue" r="2"/>
<circle cx="422.02730434491093" cy="-237.48774425592865" fill="blue" r="2"/>
<circle cx="68.5175860563194" cy="-308.9589008149715" fill="blue" r="2"/>
<circle cx="170.127651194752" cy="-260.0254407984575" fill="blue" r="2"/>
<circle cx="310.31152790628107" cy="-258.9717834705619" fill="blue" r="2"/>
<circle cx="357.10850503482266" cy="-11.668692473681531" fill="blue" r="2"/>
<circle cx="378.2651311236118" cy="-207.49728987411655" fill="blue" r="2"/>
<circle cx="195.70181517935436" cy="-231.43087975902736" fill="blue" r="2"/>
<circle cx="4.5836527945554195" cy="-32.56406859662137" fill="blue" r="2"/>
<circle cx="221.22749556123554" cy="-275.6292028892869" fill="blue" r="2"/>
<circle cx="164.28930321439339" cy="-315.06988123426095" fill="blue" r="2"/>
<circle cx="387.2435801417346" cy="-184.2394738940914" fill="blue" r="2"/>
<circle cx="127.74838221151387" cy="-179.3527379321321" fill="blue" r="2"/>
<circle cx="47.140413640527754" cy="-121.90534858538454" fill="blue" r="2"/>
<circle cx="411.492644520563" cy="-308.52647238589316" fill="blue" r="2"/>
<circle cx="251.8583653290057" cy="-186.67897330511704" fill="blue" r="2"/>
<circle cx="234.5663524447576" cy="-260.29008057980644" fill="blue" r="2"/>
<circle cx="149.84545280630164" cy="-118.52588876401515" fill="blue" r="2"/>
<circle cx="255.09629140611406" cy="-80.25376769429063" fill="blue" r="2"/>
<circle cx="448.01278425200326" cy="-258.80215477138876" fill="blue" r="2"/>
<circle cx="217.83990391587298" cy="-119.40027649569458" fill="blue" r="2"/>
<circle cx="429.38686921107234" cy="-179.00434717681833" fill="blue" r="2"/>
<circle cx="0.7728788392353536" cy="-103.97552440583353" fill="blue" r="2"/>
<circle cx="430.2908926278751" cy="-105.11769422855603" fill="blue" r="2"/>
<circle cx="168.93606874691343" cy="-319.3595870764819" fill="blue" r="2"/>
<circle cx="312.35250144355444" cy="-259.7658019899435" fill="blue" r="2"/>
<circle cx="32.033414051380404" cy="-18.617888438834314" fill="blue" r="2"/>
<circle cx="65.30680473185349" cy="-23.95638072753536" fill="blue" r="2"/>
<circle cx="300.54384245252726" cy="-311.37511686771836" fill="blue" r="2"/>
<circle cx="320.12358255381463" cy="-19.40552918668373" fill="blue" r="2"/>
<circle cx="444.3275301335678" cy="-67.85758557613332" fill="blue" r="2"/>
<circle cx="116.64654813207352" cy="-81.99534516904276" fill="blue" r="2"/>
<circle cx="48.79271956528022" cy="-279.2592934429494" fill="blue" r="2"/>
<circle cx="291.1472406987325" cy="-175.33393925466578" fill="blue" r="2"/>
<circle cx="356.5627627192045" cy="-282.49823658370167" fill="blue" r="2"/>
<circle cx="260.9394239551641" cy="-233.1879514912339" fill="blue" r="2"/>
<circle cx="116.18207892842901" cy="-241.6062731624405" fill="blue" r="2"/>
<circle cx="456.73584810875747" cy="-196.18673406888325" fill="blue" r="2"/>
<circle cx="112.63663609527718" cy="-50.7220932714668" fill="blue" r="2"/>
<circle cx="242.6748924759016" cy="-10.703228533872338" fill="blue" r="2"/>
<circle cx="102.27432478213899" cy="-263.4079427678382" fill="blue" r="2"/>
<circle cx="143.95237507844843" cy="-271.38012841668547" fill="blue" r="2"/>
<circle cx="146.19329087066495" cy="-18.47744211839219" fill="blue" r="2"/>
<circle cx="162.69399505912816" cy="-96.53289151981603" fill="blue" r="2"/>
<circle cx="198.4519903690417" cy="-165.80396516583076" fill="blue" r="2"/>
<circle cx="276.09414333221093" cy="-267.6499776119482" fill="blue" r="2"/>
<circle cx="129.2320671758438" cy="-107.50444882591711" fill="blue" r="2"/>
<circle cx="416.8808653071254" cy="-313.1754460820022" fill="blue" r="2"/>
<circle cx="378.1336903398129" cy="-248.6787341843516" fill="blue" r="2"/>
<circle cx="7.620121989483941" cy="-46.32263814272896" fill="blue" r="2"/>
<circle cx="129.41262694727985" cy="-203.32685713196437" fill="blue" r="2"/>
<circle cx="224.74104327265664" cy="-167.02412733839327" fill="blue" r="2"/>
<circle cx="203.42812973835413" cy="-53.3825603271784" fill="blue" r="2"/>
<circle cx="336.8333139997484" cy="-209.42955745524378" fill="blue" r="2"/>
<circle cx="108.76431129753104" cy="-260.11700048711685" fill="blue" r="2"/>
<circle cx="118.50322160752899" cy="-167.03681929326797" fill="blue" r="2"/>
<circle cx="431.3246816755493" cy="-176.1046144470783" fill="blue" r="2"/>
<circle cx="96.01441630743653" cy="-237.5391821444443" fill="blue" r="2"/>
<circle cx="187.73733247443334" cy="-214.19404514176142" fill="blue" r="2"/>
<circle cx="472.6044874119889" cy="-238.08877170496226" fill="blue" r="2"/>
<circle cx="410.15828113187615" cy="-297.86105291256484" fill="blue" r="2"/>
<circle cx="119.83172944763545" cy="-65.33960206330072" fill="blue" r="2"/>
<circle cx="439.86604820567504" cy="-72.29401764527888" fill="blue" r="2"/>
<circle cx="425.81223245076" cy="-227.219270856255" fill="blue" r="2"/>
<circle cx="315.53974563583137" cy="-118.34296693462976" fill="blue" r="2"/>
<circle cx="105.71365292702382" cy="-77.95373290704647" fill="blue" r="2"/>
<circle cx="418.59588769972584" cy="-108.81892597194138" fill="blue" r="2"/>
<circle cx="413.6077127471401" cy="-203.52445142664706" fill="blue" r="2"/>
<circle cx="280.2279499234917" cy="-27.16718732406929" fill="blue" r="2"/>
<circle cx="309.95665812775815" cy="-86.634785715971" fill="blue" r="2"/>
<circle cx="191.9167992811727" cy="-206.054003441498" fill="blue" r="2"/>
<circle cx="259.7289677303276" cy="-41.77091705058953" fill="blue" r="2"/>
<circle cx="307.96602662465665" cy="-237.61235479005833" fill="blue" r="2"/>
<circle cx="4.993051169139768" cy="-135.65136637806293" fill="blue" r="2"/>
<circle cx="51.89136209329767" cy="-242.3711675508477" fill="blue" r="2"/>
<circle cx="0.4418334449816541" cy="-196.96144287758864" fill="blue" r="2"/>
<circle cx="418.8261267818718" cy="-102.15596742210963" fill="blue" r="2"/>
<circle cx="54.80416105370505" cy="-156.91744460631324" fill="blue" r="2"/>
<circle cx="230.00184285216392" cy="-278.4654481758477" fill="blue" r="2"/>
<circle cx="336.39009441839835" cy="-259.14534688846845" fill="blue" r="2"/>
<circle cx="208.55297691404684" cy="-195.47672709678716" fill="blue" r="2"/>
<circle cx="472.8404996436834" cy="-83.31195659020446" fill="blue" r="2"/>
<circle cx="213.10944872041892" cy="-77.87485247654314" fill="blue" r="2"/>
<circle cx="246.41795674704017" cy="-11.253369203705642" fill="blue" r="2"/>
<circle cx="18.028398987049172" cy="-42.10382822234414" fill="blue" r="2"/>
<circle cx="65.34777184929683" cy="-205.14764281549165" fill="blue" r="2"/>
<circle cx="222.85237788370938" cy="-46.34088010960918" fill="blue" r="2"/>
<circle cx="393.8530636787471" cy="-42.6811950458048" fill="blue" r="2"/>
<circle cx="68.25487787625318" cy="-86.11425755634359" fill="blue" r="2"/>
<circle cx="284.00444736435855" cy="-283.11262990040774" fill="blue" r="2"/>
<circle cx="329.6076105787288" cy="-248.2401217286594" fill="blue" r="2"/>
<circle cx="248.9953651006702" cy="-175.9067447723175" fill="blue" r="2"/>
<circle cx="89.24540778518607" cy="-316.04581365868137" fill="blue" r="2"/>
<circle cx="145.1898385863052" cy="-49.659100893750306" fill="blue" r="2"/>
<circle cx="230.8196242465473" cy="-178.55165582768595" fill="blue" r="2"/>
<circle cx="279.61850049541715" cy="-297.220833559529" fill="blue" r="2"/>
<circle cx="106.58236981617584" cy="-283.9930121171323" fill="blue" r="2"/>
<circle cx="333.8164131597468" cy="-160.03196802677448" fill="blue" r="2"/>
<circle cx="262.38462699556084" cy="-71.33359761266581" fill="blue" r="2"/>
<circle cx="213.07112774983338" cy="-38.564429867950686" fill="blue" r="2"/>
<circle cx="117.02028908369275" cy="-292.16537547735766" fill="blue" r="2"/>
<circle cx="372.7436386048679" cy="-167.37219338886638" fill="blue" r="2"/>
<circle cx="240.66498906863455" cy="-309.78654102042685" fill="blue" r="2"/>
<circle cx="451.48585179532637" cy="-274.1582533868114" fill="blue" r="2"/>
<circle cx="31.75095089190986" cy="-41.55181304786005" fill="blue" r="2"/>
<circle cx="429.0434808321282" cy="-117.79241919002737" fill="blue" r="2"/>
<circle cx="137.03012817641758" cy="-36.69209755951028" fill="blue" r="2"/>
<circle cx="75.84852155968943" cy="-321.3499946733721" fill="blue" r="2"/>
<circle cx="398.5495203651825" cy="-257.31377294431576" fill="blue" r="2"/>
<circle cx="360.8900482863102" cy="-110.47382594719346" fill="blue" r="2"/>
<circle cx="35.69726662621534" cy="-126.64294316158153" fill="blue" r="2"/>
<circle cx="176.0957029538017" cy="-337.02568894271315" fill="blue" r="2"/>
<circle cx="143.67504955336665" cy="-205.74566324572731" fill="blue" r="2"/>
<circle cx="131.2510989269505" cy="-276.8246215532746" fill="blue" r="2"/>
<circle cx="437.8049931344902" cy="-121.01362698727193" fill="blue" r="2"/>
<circle cx="292.7306067912821" cy="-113.42313415645106" fill="blue" r="2"/>
<circle cx="97.84058190876415" cy="-94.09604679023654" fill="blue" r="2"/>
<circle cx="367.7219100927364" cy="-114.2511250037372" fill="blue" r="2"/>
<circle cx="247.27963176103688" cy="-334.8927333829086" fill="blue" r="2"/>
<circle cx="49.76855861179043" cy="-21.364730570355754" fill="blue" r="2"/>
<circle cx="81.15969421027927" cy="-329.46024286398483" fill="blue" r="2"/>
<circle cx="251.32588698549364" cy="-107.69484300554049" fill="blue" r="2"/>
<circle cx="300.24409517334846" cy="-264.96740910096537" fill="blue" r="2"/>
<circle cx="384.4242441004048" cy="-239.79051100996335" fill="blue" r="2"/>
<circle cx="457.902460593132" cy="-1.585154994564384" fill="blue" r="2"/>
<circle cx="339.53740641036325" cy="-189.22424982153677" fill="blue" r="2"/>
<circle cx="212.3780433101229" cy="-88.89064056960697" fill="blue" r="2"/>
<circle cx="7.5314396583704735" cy="-72.06390145151227" fill="blue" r="2"/>
<circle cx="30.971001044803756" cy="-54.602109720458614" fill="blue" r="2"/>
<circle cx="355.6952436025533" cy="-201.73519697371668" fill="blue" r="2"/>
<circle cx="393.07398502821945" cy="-123.78689535045295" fill="blue" r="2"/>
<circle cx="302.7002500615571" cy="-76.45203682482173" fill="blue" r="2"/>
<circle cx="454.4576243337312" cy="-245.3563570890484" fill="blue" r="2"/>
<circle cx="388.8445120008937" cy="-4.152840486790428" fill="blue" r="2"/>
<circle cx="403.79414626787485" cy="-57.368444963024224" fill="blue" r="2"/>
<circle cx="263.4520237102089" cy="-38.22599456960348" fill="blue" r="2"/>
<circle cx="208.66985502868533" cy="-3.7742667082342773" fill="blue" r="2"/>
<circle cx="440.1019173324874" cy="-197.94228250575642" fill="blue" r="2"/>
<circle cx="92.9549789019629" cy="-70.29979057946058" fill="blue" r="2"/>
<circle cx="434.3717301750613" cy="-311.557378721698" fill="blue" r="2"/>
<circle cx="160.00577509321417" cy="-241.68757420855414" fill="blue" r="2"/>
<circle cx="385.9002456532324" cy="-338.4247169317922" fill="blue" r="2"/>
<circle cx="44.814773115718864" cy="-232.7089651561086" fill="blue" r="2"/>
<circle cx="99.13893789674844" cy="-209.63623868604253" fill="blue" r="2"/>
<circle cx="237.9649546886464" cy="-26.167984641175202" fill="blue" r="2"/>
<circle cx="234.08489920627258" cy="-68.66804789698655" fill="blue" r="2"/>
<circle cx="377.0725470902101" cy="-267.2415217055168" fill="blue" r="2"/>
<circle cx="318.52719706037607" cy="-253.66508469214853" fill="blue" r="2"/>
<circle cx="199.53289433748563" cy="-294.595119250211" fill="blue" r="2"/>
<circle cx="157.5803203561563" cy="-267.45773617435714" fill="blue" r="2"/>
<circle cx="86.99376470196121" cy="-276.1913072342969" fill="blue" r="2"/>
<circle cx="67.12101969290224" cy="-214.3976551673622" fill="blue" r="2"/>
<circle cx="154.81956719436283" cy="-238.23428597614767" fill="blue" r="2"/>
<circle cx="242.37023650447406" cy="-125.0346453483006" fill="blue" r="2"/>
<circle cx="18.299381097336678" cy="-218.6426608976386" fill="blue" r="2"/>
<circle cx="290.68725949711256" cy="-4.494878276369305" fill="blue" r="2"/>
<circle cx="299.72186322056587" cy="-316.29566118858014" fill="blue" r="2"/>
<circle cx="360.49737695969566" cy="-138.46602266189072" fill="blue" r="2"/>
<circle cx="320.54012122915316" cy="-216.1961387105703" fill="blue" r="2"/>
<circle cx="340.7030084979721" cy="-78.59903437862594" fill="blue" r="2"/>
<circle cx="143.0148417402273" cy="-149.52599906315646" fill="blue" r="2"/>
<circle cx="114.39251817219724" cy="-332.05681343885357" fill="blue" r="2"/>
<circle cx="250.19436782707027" cy="-316.35999861110736" fill="blue" r="2"/>
<circle cx="192.80067437796762" cy="-300.35723346887653" fill="blue" r="2"/>
<circle cx="62.7919812291513" cy="-221.40792557002084" fill="blue" r="2"/>
<circle cx="165.61282540109102" cy="-2.7359174597056013" fill="blue" r="2"/>
<circle cx="144.14400763353308" cy="-71.66326954477184" fill="blue" r="2"/>
<circle cx="17.92400417713573" cy="-287.45178685633715" fill="blue" r="2"/>
<circle cx="144.22580711450058" cy="-323.462531219685" fill="blue" r="2"/>
<circle cx="0.9705777964000717" cy="-223.36678083805856" fill="blue" r="2"/>
<circle cx="468.43224550296804" cy="-268.25883052506646" fill="blue" r="2"/>
<circle cx="101.75969707427271" cy="-285.8652882860401" fill="blue" r="2"/>
<circle cx="261.4662339905042" cy="-83.2606434974529" fill="blue" r="2"/>
<circle cx="412.6954610894821" cy="-75.06557460719432" fill="blue" r="2"/>
<circle cx="394.6263461170812" cy="-249.64904935090507" fill="blue" r="2"/>
<circle cx="38.590962456261515" cy="-195.97857885858264" fill="blue" r="2"/>
<circle cx="365.2300596664543" cy="-268.7000527117644" fill="blue" r="2"/>
<circle cx="346.76820481337063" cy="-151.99957469903484" fill="blue" r="2"/>
<circle cx="321.97795562106165" cy="-4.590711942143022" fill="blue" r="2"/>
<circle cx="252.598863152881" cy="-75.77744103714934" fill="blue" r="2"/>
<circle cx="135.86513751060392" cy="-301.6775421945105" fill="blue" r="2"/>
<circle cx="374.33541905672274" cy="-183.6660688455441" fill="blue" r="2"/>
<circle cx="277.78336467949066" cy="-260.55280000474335" fill="blue" r="2"/>
<circle cx="318.80439308532084" cy="-305.13793280141203" fill="blue" r="2"/>
<circle cx="184.10384000776435" cy="-28.968407760244332" fill="blue" r="2"/>
<circle cx="216.6370044935309" cy="-255.67250987369536" fill="blue" r="2"/>
<circle cx="256.22658801002393" cy="-51.9149324219152" fill="blue" r="2"/>
<circle cx="116.08868507394078" cy="-15.166434952140605" fill="blue" r="2"/>
<circle cx="304.8459814409348" cy="-137.57228044299194" fill="blue" r="2"/>
<circle cx="420.224696811565" cy="-251.2071280743271" fill="blue" r="2"/>
<circle cx="145.9940844800002" cy="-52.12592965522597" fill="blue" r="2"/>
<circle cx="243.37886463804918" cy="-230.12902794185345" fill="blue" r="2"/>
<circle cx="346.22511462219086" cy="-243.39902691261517" fill="blue" r="2"/>
<circle cx="274.92317247695723" cy="-45.05029228974526" fill="blue" r="2"/>
<circle cx="384.25928403058344" cy="-8.214051749461081" fill="blue" r="2"/>
<circle cx="158.43064764924344" cy="-42.581403458264695" fill="blue" r="2"/>
<circle cx="3.8345889993824045" cy="-261.8829159748167" fill="blue" r="2"/>
<circle cx="216.70561655260016" cy="-288.5484079923774" fill="blue" r="2"/>
<circle cx="86.72509896000605" cy="-200.82257922113476" fill="blue" r="2"/>
<circle cx="173.62090584128336" cy="-191.33203342155284" fill="blue" r="2"/>
<circle cx="346.5422764783045" cy="-168.01309941546953" fill="blue" r="2"/>
<circle cx="225.78248727566597" cy="-227.46426398507916" fill="blue" r="2"/>
<circle cx="346.7293700224745" cy="-71.53187204028659" fill="blue" r="2"/>
<circle cx="389.5767124378025" cy="-111.06501573909146" fill="blue" r="2"/>
<circle cx="235.2190580775873" cy="-111.40307305854003" fill="blue" r="2"/>
<circle cx="342.89540165024187" cy="-151.73079052588946" fill="blue" r="2"/>
<circle cx="279.52735911725694" cy="-256.013763485749" fill="blue" r="2"/>
<circle cx="337.43272504607444" cy="-219.03524665150158" fill="blue" r="2"/>
<circle cx="369.5965348041347" cy="-100.4365768143599" fill="blue" r="2"/>
<circle cx="351.5914979651818" cy="-125.0556074141029" fill="blue" r="2"/>
<circle cx="109.4053506108046" cy="-280.33834878624907" fill="blue" r="2"/>
<circle cx="57.51692964480917" cy="-165.13636441876244" fill="blue" r="2"/>
<circle cx="270.74063146099553" cy="-145.1048926671414" fill="blue" r="2"/>
<circle cx="330.5808220189227" cy="-300.51917026062995" fill="blue" r="2"/>
<circle cx="277.1034815002478" cy="-251.49948607732088" fill="blue" r="2"/>
<circle cx="122.80097195103657" cy="-106.33010375498395" fill="blue" r="2"/>
<circle cx="287.78677453800395" cy="-288.3165455033202" fill="blue" r="2"/>
<circle cx="323.8790783311885" cy="-248.99562903158713" fill="blue" r="2"/>
<circle cx="401.5683074387132" cy="-323.5309148780927" fill="blue" r="2"/>
<circle cx="78.09950765254894" cy="-236.89355617264235" fill="blue" r="2"/>
<circle cx="447.249411124185" cy="-180.78949448275608" fill="blue" r="2"/>
<circle cx="100.67652603995424" cy="-109.59806010532151" fill="blue" r="2"/>
<circle cx="306.6470793412148" cy="-180.44683454002657" fill="blue" r="2"/>
<circle cx="188.51372741222428" cy="-91.50538780854238" fill="blue" r="2"/>
<circle cx="246.0621515122382" cy="-249.69282938593494" fill="blue" r="2"/>
<circle cx="209.7041371160468" cy="-59.0803918939908" fill="blue" r="2"/>
<circle cx="231.22863072515753" cy="-247.69617779574475" fill="blue" r="2"/>
<circle cx="394.6181662623183" cy="-210.95837591402378" fill="blue" r="2"/>
<circle cx="271.9501539343712" cy="-337.36572292397835" fill="blue" r="2"/>
<circle cx="254.26829525572538" cy="-4.635426063317878" fill="blue" r="2"/>
<circle cx="89.91433511750806" cy="-210.49759450043575" fill="blue" r="2"/>
<circle cx="249.21389753422824" cy="-112.35899522730304" fill="blue" r="2"/>
<circle cx="51.94866025161712" cy="-323.5083814581717" fill="blue" r="2"/>
<circle cx="383.3666532936016" cy="-46.93835987874182" fill="blue" r="2"/>
<circle cx="407.0212619710337" cy="-301.09997050828383" fill="blue" r="2"/>
<circle cx="468.70329152970567" cy="-49.57384384172807" fill="blue" r="2"/>
<circle cx="51.66993713333021" cy="-205.19404859129614" fill="blue" r="2"/>
<circle cx="45.54805593762431" cy="-246.8384855748045" fill="blue" r="2"/>
<circle cx="426.38329010087784" cy="-319.7164837300578" fill="blue" r="2"/>
<circle cx="207.11155176325133" cy="-116.63000711997702" fill="blue" r="2"/>
<circle cx="278.2983510489519" cy="-124.57620172735626" fill="blue" r="2"/>
<circle cx="163.12086979022112" cy="-307.3969582165705" fill="blue" r="2"/>
<circle cx="355.2850203354168" cy="-277.7656069277631" fill="blue" r="2"/>
<circle cx="362.2024475696353" cy="-222.60275995072914" fill="blue" r="2"/>
<circle cx="417.34771581811293" cy="-169.08832939081032" fill="blue" r="2"/>
<circle cx="404.7991708743873" cy="-90.89689770667049" fill="blue" r="2"/>
<circle cx="167.11751033255075" cy="-190.93480151779954" fill="blue" r="2"/>
<circle cx="267.5476524760687" cy="-163.50859714091325" fill="blue" r="2"/>
<circle cx="452.0531063392194" cy="-41.182729184090796" fill="blue" r="2"/>
<circle cx="110.52035204208852" cy="-266.8800708709568" fill="blue" r="2"/>
<circle cx="105.87632467310385" cy="-337.62155623834343" fill="blue" r="2"/>
<circle cx="291.40403728621163" cy="-328.5166321860564" fill="blue" r="2"/>
<circle cx="192.55212083042102" cy="-6.378910009284806" fill="blue" r="2"/>
<circle cx="224.56769683113063" cy="-36.577441598745224" fill="blue" r="2"/>
<circle cx="379.11774584636197" cy="-3.337894310125802" fill="blue" r="2"/>
<circle cx="448.87956320721963" cy="-26.61365643004661" fill="blue" r="2"/>
<circle cx="370.8506357985515" cy="-268.0048481181811" fill="blue" r="2"/>
<circle cx="290.9024202077218" cy="-125.25123440768695" fill="blue" r="2"/>
<circle cx="129.08830584164923" cy="-309.8518175861718" fill="blue" r="2"/>
<circle cx="382.3297405665675" cy="-295.82996196576136" fill="blue" r="2"/>
<circle cx="455.39606089895744" cy="-20.738943527053824" fill="blue" r="2"/>
<circle cx="457.24270346154753" cy="-24.27002063165471" fill="blue" r="2"/>
<circle cx="396.6010165889944" cy="-108.97441685272584" fill="blue" r="2"/>
<circle cx="74.84433797088727" cy="-261.92674389110925" fill="blue" r="2"/>
<circle cx="71.55738684651787" cy="-229.47401792724446" fill="blue" r="2"/>
<circle cx="255.6872258917873" cy="-0.22096572422075855" fill="blue" r="2"/>
<circle cx="21.323511341643204" cy="-55.649351335575815" fill="blue" r="2"/>
<circle cx="122.56990841183293" cy="-137.72522767399445" fill="blue" r="2"/>
<circle cx="379.55580369244035" cy="-182.33041782141981" fill="blue" r="2"/>
<circle cx="467.1575343106382" cy="-329.2558331232821" fill="blue" r="2"/>
<circle cx="475.618153213161" cy="-276.1334816264319" fill="blue" r="2"/>
<circle cx="146.61087238335426" cy="-282.2024221291894" fill="blue" r="2"/>
<circle cx="100.9855298028246" cy="-153.546912317334" fill="blue" r="2"/>
<circle cx="212.5952007890055" cy="-239.53633826759065" fill="blue" r="2"/>
<circle cx="185.38948279253762" cy="-94.90921083115776" fill="blue" r="2"/>
<circle cx="236.62395760172646" cy="-171.5695930438375" fill="blue" r="2"/>
<circle cx="326.5376017627164" cy="-210.5910852686191" fill="blue" r="2"/>
<circle cx="212.36265544020256" cy="-167.28585941041516" fill="blue" r="2"/>
<circle cx="119.01497713042957" cy="-253.3258174493603" fill="blue" r="2"/>
<circle cx="443.8887016676403" cy="-59.62040631364174" fill="blue" r="2"/>
<circle cx="191.37245400720272" cy="-128.27175802236633" fill="blue" r="2"/>
<circle cx="137.5054310233847" cy="-300.6513809435303" fill="blue" r="2"/>
<circle cx="420.47565696037805" cy="-218.09070450629545" fill="blue" r="2"/>
<circle cx="92.2781327707003" cy="-134.8285946438675" fill="blue" r="2"/>
<circle cx="125.72874185625591" cy="-217.3629640812695" fill="blue" r="2"/>
<circle cx="239.45515405089344" cy="-18.10217753629837" fill="blue" r="2"/>
<circle cx="276.88872517555825" cy="-260.2466200777515" fill="blue" r="2"/>
<circle cx="331.5405007510649" cy="-246.6676140500097" fill="blue" r="2"/>
<circle cx="175.7791388469086" cy="-67.7206148845737" fill="blue" r="2"/>
<circle cx="226.43720697778355" cy="-244.47921786597132" fill="blue" r="2"/>
<circle cx="330.23564764825846" cy="-211.72025500492376" fill="blue" r="2"/>
<circle cx="3.6367844174574415" cy="-196.15418971075243" fill="blue" r="2"/>
</g>
</g>
<g>
<g>
<line stroke="black" stroke-width="1" x1="0" x2="0" y1="0" y2="10"/>
<line stroke="black" stroke-width="1" x1="96" x2="96" y1="0" y2="10"/>
<line stroke="black" stroke-width="1" x1="192" x2="192" y1="0" y2="10"/>
<line stroke="black" stroke-width="1" x1="288" x2="288" y1="0" y2="10"/>
<line stroke="black" stroke-width="1" x1="384" x2="384" y1="0" y2="10"/>
<line stroke="black" stroke-width="1" x1="480" x2="480" y1="0" y2="10"/>
</g>
<line stroke="black" stroke-width="1" x1="0" x2="480" y1="0" y2="0"/>
<g>
<text font-size="12" text-anchor="middle" x="0" y="20">
0
</text>
<text font-size="12" text-anchor="middle" x="96" y="20">
0.2
</text>
<text font-size="12" text-anchor="middle" x="192" y="20">
0.4
</text>
<text font-size="12" text-anchor="middle" x="288" y="20">
0.6
</text>
<text font-size="12" text-anchor="middle" x="384" y="20">
0.8
</text>
<text font-size="12" text-anchor="middle" x="480" y="20">
1
</text>
</g>
<text font-size="12" text-anchor="middle" x="240" y="30">

</text>
</g>
<g>
<g>
<line stroke="black" stroke-width="1" x1="0" x2="-10" y1="0" y2="0"/>
<line stroke="black" stroke-width="1" x1="0" x2="-10" y1="-68" y2="-68"/>
<line stroke="black" stroke-width="1" x1="0" x2="-10" y1="-136" y2="-136"/>
<line stroke="black" stroke-width="1" x1="0" x2="-10" y1="-204" y2="-204"/>
<line stroke="black" stroke-width="1" x1="0" x2="-10" y1="-272" y2="-272"/>
<line stroke="black" stroke-width="1" x1="0" x2="-10" y1="-340" y2="-340"/>
</g>
<line stroke="black" stroke-width="1" x1="0" x2="0" y1="0" y2="-340"/>
<g>
<text dominant-baseline="middle" font-size="12" text-anchor="end" x="-15" y="0">
0
</text>
<text dominant-baseline="middle" font-size="12" text-anchor="end" x="-15" y="-68">
0.2
</text>
<text dominant-baseline="middle" font-size="12" text-anchor="end" x="-15" y="-136">
0.4
</text>
<text dominant-baseline="middle" font-size="12" text-anchor="end" x="-15" y="-204">
0.6
</text>
<text dominant-baseline="middle" font-size="12" text-anchor="end" x="-15" y="-272">
0.8
</text>
<text dominant-baseline="middle" font-size="12" text-anchor="end" x="-15" y="-340">
1
</text>
</g>
<text font-size="12" text-anchor="middle" transform="rotate(-90 -36 -170)" x="-36" y="-182">

</text>
</g>
</g>
</svg>