<svg viewBox="0 0 600 400" xmlns="http://www.w3.org/2000/svg">
<g transform="translate(72, 364)">
<g>
<g>
<circle cx="0" cy="0" fill="blue" r="2"/>
<circle cx="362.34127979841253" cy="-193.7456989393381" fill="blue" r="2"/>
<circle cx="244.682559596825" cy="-47.49139787867619" fill="blue" r="2"/>
<circle cx="127.02383939523742" cy="-241.23709681801424" fill="blue" r="2"/>
<circle cx="9.365119193650031" cy="-94.98279575735238" fill="blue" r="2"/>
<circle cx="371.70639899206265" cy="-288.7284946966905" fill="blue" r="2"/>
<circle cx="254.04767879047483" cy="-142.4741936360285" fill="blue" r="2"/>
<circle cx="136.38895858888745" cy="-336.21989257536666" fill="blue" r="2"/>
<circle cx="18.730238387300062" cy="-189.96559151470476" fill="blue" r="2"/>
<circle cx="381.07151818571265" cy="-43.711290454042896" fill="blue" r="2"/>
<circle cx="263.4127979841253" cy="-237.45698939338104" fill="blue" r="2"/>
<circle cx="145.75407778253748" cy="-91.20268833271916" fill="blue" r="2"/>
<circle cx="28.095357580949667" cy="-284.948387272057" fill="blue" r="2"/>
<circle cx="390.4366373793627" cy="-138.69408621139513" fill="blue" r="2"/>
<circle cx="272.7779171777749" cy="-332.43978515073326" fill="blue" r="2"/>
<circle cx="155.11919697618794" cy="-186.18548409007138" fill="blue" r="2"/>
<circle cx="37.460476774600124" cy="-39.93118302940953" fill="blue" r="2"/>
<circle cx="399.8017565730123" cy="-233.67688196874767" fill="blue" r="2"/>
<circle cx="282.14303637142535" cy="-87.42258090808579" fill="blue" r="2"/>
<circle cx="164.48431616983754" cy="-281.16827984742395" fill="blue" r="2"/>
<circle cx="46.82559596825058" cy="-134.91397878676207" fill="blue" r="2"/>
<circle cx="409.16687576666277" cy="-328.6596777261002" fill="blue" r="2"/>
<circle cx="291.50815556507496" cy="-182.40537666543833" fill="blue" r="2"/>
<circle cx="173.84943536348715" cy="-36.151075604776466" fill="blue" r="2"/>
<circle cx="56.190715161899334" cy="-229.896774544114" fill="blue" r="2"/>
<circle cx="418.5319949603132" cy="-83.64247348345214" fill="blue" r="2"/>
<circle cx="300.8732747587254" cy="-277.38817242279026" fill="blue" r="2"/>
<circle cx="183.2145545571376" cy="-131.1338713621284" fill="blue" r="2"/>
<circle cx="65.55583435554979" cy="-324.8795703014665" fill="blue" r="2"/>
<circle cx="427.897114153962" cy="-178.62526924080527" fill="blue" r="2"/>
<circle cx="310.2383939523759" cy="-32.370968180142796" fill="blue" r="2"/>
<circle cx="192.57967375078806" cy="-226.11666711948152" fill="blue" r="2"/>
<circle cx="74.92095354920025" cy="-79.86236605881906" fill="blue" r="2"/>
<circle cx="437.26223334761244" cy="-273.6080649981566" fill="blue" r="2"/>
<circle cx="319.6035131460246" cy="-127.35376393749533" fill="blue" r="2"/>
<circle cx="201.94479294443852" cy="-321.09946287683283" fill="blue" r="2"/>
<circle cx="84.2860727428507" cy="-174.84516181617158" fill="blue" r="2"/>
<circle cx="446.6273525412629" cy="-28.590860755509127" fill="blue" r="2"/>
<circle cx="328.9686323396751" cy="-222.33655969484786" fill="blue" r="2"/>
<circle cx="211.30991213808727" cy="-76.0822586341854" fill="blue" r="2"/>
<circle cx="93.65119193650116" cy="-269.82795757352415" fill="blue" r="2"/>
<circle cx="455.99247173491335" cy="-123.57365651286166" fill="blue" r="2"/>
<circle cx="338.33375153332554" cy="-317.3193554522004" fill="blue" r="2"/>
<circle cx="220.67503133173773" cy="-171.06505439153793" fill="blue" r="2"/>
<circle cx="103.01631113014992" cy="-24.810753330876665" fill="blue" r="2"/>
<circle cx="465.3575909285621" cy="-218.5564522702142" fill="blue" r="2"/>
<circle cx="347.6988707269743" cy="-72.30215120955293" fill="blue" r="2"/>
<circle cx="230.04015052538648" cy="-266.04785014889046" fill="blue" r="2"/>
<circle cx="112.38143032379867" cy="-119.79354908822799" fill="blue" r="2"/>
<circle cx="474.72271012221427" cy="-313.5392480275667" fill="blue" r="2"/>
<circle cx="357.06398992062645" cy="-167.28494696690427" fill="blue" r="2"/>
<circle cx="239.40526971903864" cy="-21.030645906242995" fill="blue" r="2"/>
<circle cx="121.74654951745083" cy="-214.77634484558052" fill="blue" r="2"/>
<circle cx="4.087829315863019" cy="-68.52204378491926" fill="blue" r="2"/>
<circle cx="366.4291091142752" cy="-262.2677427242568" fill="blue" r="2"/>
<circle cx="248.7703889126874" cy="-116.01344166359553" fill="blue" r="2"/>
<circle cx="131.11166871109958" cy="-309.75914060293303" fill="blue" r="2"/>
<circle cx="13.45294850951177" cy="-163.5048395422706" fill="blue" r="2"/>
<circle cx="375.79422830792396" cy="-17.250538481610533" fill="blue" r="2"/>
<circle cx="258.13550810633956" cy="-210.99623742094806" fill="blue" r="2"/>
<circle cx="140.47678790475175" cy="-64.74193636028559" fill="blue" r="2"/>
<circle cx="22.818067703163933" cy="-258.4876352996231" fill="blue" r="2"/>
<circle cx="385.1593475015761" cy="-112.23333423896307" fill="blue" r="2"/>
<circle cx="267.5006272999883" cy="-305.9790331783006" fill="blue" r="2"/>
<circle cx="149.8419070984005" cy="-159.72473211763813" fill="blue" r="2"/>
<circle cx="32.183186896812686" cy="-13.470431056975656" fill="blue" r="2"/>
<circle cx="394.5244666952249" cy="-207.21612999631319" fill="blue" r="2"/>
<circle cx="276.86574649363706" cy="-60.96182893565313" fill="blue" r="2"/>
<circle cx="159.20702629204925" cy="-254.70752787499066" fill="blue" r="2"/>
<circle cx="41.54830609046144" cy="-108.45322681432819" fill="blue" r="2"/>
<circle cx="403.88958588887704" cy="-302.1989257536657" fill="blue" r="2"/>
<circle cx="286.2308656872892" cy="-155.94462469300566" fill="blue" r="2"/>
<circle cx="168.5721454857014" cy="-9.690323632343194" fill="blue" r="2"/>
<circle cx="50.9134252841136" cy="-203.43602257168072" fill="blue" r="2"/>
<circle cx="413.2547050825258" cy="-57.18172151101825" fill="blue" r="2"/>
<circle cx="295.595984880938" cy="-250.9274204503582" fill="blue" r="2"/>
<circle cx="177.93726467935016" cy="-104.67311938969573" fill="blue" r="2"/>
<circle cx="60.27854447776235" cy="-298.41881832903323" fill="blue" r="2"/>
<circle cx="422.61982427617454" cy="-152.1645172683708" fill="blue" r="2"/>
<circle cx="304.96110407458673" cy="-5.910216207710732" fill="blue" r="2"/>
<circle cx="187.30238387300233" cy="-199.65591514704826" fill="blue" r="2"/>
<circle cx="69.64366367141452" cy="-53.40161408638579" fill="blue" r="2"/>
<circle cx="431.9849434698267" cy="-247.14731302572332" fill="blue" r="2"/>
<circle cx="314.3262232682389" cy="-100.89301196506085" fill="blue" r="2"/>
<circle cx="196.66750306665108" cy="-294.6387109044008" fill="blue" r="2"/>
<circle cx="79.00878286505986" cy="-148.38440984373833" fill="blue" r="2"/>
<circle cx="441.35006266347546" cy="-2.1301087830758547" fill="blue" r="2"/>
<circle cx="323.69134246189105" cy="-195.87580772241338" fill="blue" r="2"/>
<circle cx="206.03262226029983" cy="-49.62150666175333" fill="blue" r="2"/>
<circle cx="88.37390205871543" cy="-243.36720560109086" fill="blue" r="2"/>
<circle cx="450.7151818571242" cy="-97.11290454042839" fill="blue" r="2"/>
<circle cx="333.0564616555398" cy="-290.8586034797659" fill="blue" r="2"/>
<circle cx="215.39774145394858" cy="-144.60430241910586" fill="blue" r="2"/>
<circle cx="97.73902125236418" cy="-338.35000135844336" fill="blue" r="2"/>
<circle cx="460.08030105077296" cy="-192.09570029778092" fill="blue" r="2"/>
<circle cx="342.42158084918856" cy="-45.84139923711845" fill="blue" r="2"/>
<circle cx="224.76286064759734" cy="-239.58709817645598" fill="blue" r="2"/>
<circle cx="107.10414044601293" cy="-93.33279711579593" fill="blue" r="2"/>
<circle cx="469.44542024442853" cy="-287.0784960551334" fill="blue" r="2"/>
<circle cx="351.7867000428373" cy="-140.824194994471" fill="blue" r="2"/>
<circle cx="234.1279798412529" cy="-334.56989393380854" fill="blue" r="2"/>
<circle cx="116.46925963966169" cy="-188.31559287314846" fill="blue" r="2"/>
<circle cx="478.8105394380773" cy="-42.06129181248599" fill="blue" r="2"/>
<circle cx="361.15181923648606" cy="-235.80699075182352" fill="blue" r="2"/>
<circle cx="243.49309903490166" cy="-89.55268969116105" fill="blue" r="2"/>
<circle cx="125.83437883331044" cy="-283.298388630501" fill="blue" r="2"/>
<circle cx="8.175658631726037" cy="-137.04408756983852" fill="blue" r="2"/>
<circle cx="370.51693843014164" cy="-330.78978650917605" fill="blue" r="2"/>
<circle cx="252.8582182285504" cy="-184.53548544851358" fill="blue" r="2"/>
<circle cx="135.199498026966" cy="-38.28118438785353" fill="blue" r="2"/>
<circle cx="17.54077782537479" cy="-232.02688332719106" fill="blue" r="2"/>
<circle cx="379.8820576237904" cy="-85.77258226652859" fill="blue" r="2"/>
<circle cx="262.22333742219917" cy="-279.5182812058661" fill="blue" r="2"/>
<circle cx="144.56461722061476" cy="-133.26398014520606" fill="blue" r="2"/>
<circle cx="26.90589701902354" cy="-327.0096790845412" fill="blue" r="2"/>
<circle cx="389.24717681743914" cy="-180.75537802388112" fill="blue" r="2"/>
<circle cx="271.5884566158479" cy="-34.50107696322107" fill="blue" r="2"/>
<circle cx="153.92973641426352" cy="-228.24677590255618" fill="blue" r="2"/>
<circle cx="36.271016212679115" cy="-81.99247484189613" fill="blue" r="2"/>
<circle cx="398.6122960110879" cy="-275.73817378123124" fill="blue" r="2"/>
<circle cx="280.9535758095035" cy="-129.48387272057118" fill="blue" r="2"/>
<circle cx="163.29485560791227" cy="-323.22957165991113" fill="blue" r="2"/>
<circle cx="45.63613540632787" cy="-176.97527059924624" fill="blue" r="2"/>
<circle cx="407.97741520473664" cy="-30.72096953858619" fill="blue" r="2"/>
<circle cx="290.31869500315224" cy="-224.46666847792613" fill="blue" r="2"/>
<circle cx="172.65997480156102" cy="-78.21236741726125" fill="blue" r="2"/>
<circle cx="55.00125459997662" cy="-271.9580663566012" fill="blue" r="2"/>
<circle cx="417.3425343983854" cy="-125.70376529593631" fill="blue" r="2"/>
<circle cx="299.683814196801" cy="-319.44946423527625" fill="blue" r="2"/>
<circle cx="182.0250939952166" cy="-173.1951631746162" fill="blue" r="2"/>
<circle cx="64.36637379362537" cy="-26.94086211395131" fill="blue" r="2"/>
<circle cx="426.70765359204097" cy="-220.68656105329126" fill="blue" r="2"/>
<circle cx="309.04893339044975" cy="-74.43225999262637" fill="blue" r="2"/>
<circle cx="191.39021318886535" cy="-268.1779589319663" fill="blue" r="2"/>
<circle cx="73.73149298727412" cy="-121.92365787130626" fill="blue" r="2"/>
<circle cx="436.0727727856897" cy="-315.6693568106414" fill="blue" r="2"/>
<circle cx="318.4140525840985" cy="-169.41505574998132" fill="blue" r="2"/>
<circle cx="200.7553323825141" cy="-23.160754689321266" fill="blue" r="2"/>
<circle cx="83.09661218092288" cy="-216.90645362865638" fill="blue" r="2"/>
<circle cx="445.4378919793385" cy="-70.65215256799632" fill="blue" r="2"/>
<circle cx="327.7791717777541" cy="-264.39785150733144" fill="blue" r="2"/>
<circle cx="210.12045157616285" cy="-118.14355044667138" fill="blue" r="2"/>
<circle cx="92.46173137457845" cy="-311.88924938601133" fill="blue" r="2"/>
<circle cx="454.8030111729872" cy="-165.63494832534644" fill="blue" r="2"/>
<circle cx="337.1442909714028" cy="-19.380647264686388" fill="blue" r="2"/>
<circle cx="219.4855707698116" cy="-213.1263462040215" fill="blue" r="2"/>
<circle cx="101.8268505682272" cy="-66.87204514336145" fill="blue" r="2"/>
<circle cx="464.168130366636" cy="-260.6177440827014" fill="blue" r="2"/>
<circle cx="346.5094101650516" cy="-114.3634430220365" fill="blue" r="2"/>
<circle cx="228.85068996346035" cy="-308.10914196137645" fill="blue" r="2"/>
<circle cx="111.19196976187595" cy="-161.8548409007164" fill="blue" r="2"/>
<circle cx="473.53324956029155" cy="-15.60053984005151" fill="blue" r="2"/>
<circle cx="355.87452935870033" cy="-209.34623877939146" fill="blue" r="2"/>
<circle cx="238.21580915711593" cy="-63.09193771872657" fill="blue" r="2"/>
<circle cx="120.5570889555247" cy="-256.8376366580665" fill="blue" r="2"/>
<circle cx="2.8983687539403036" cy="-110.58333559740646" fill="blue" r="2"/>
<circle cx="365.2396485523491" cy="-304.3290345367416" fill="blue" r="2"/>
<circle cx="247.58092835076468" cy="-158.07473347608152" fill="blue" r="2"/>
<circle cx="129.92220814917346" cy="-11.820432415421465" fill="blue" r="2"/>
<circle cx="12.263487947589056" cy="-205.56613135475658" fill="blue" r="2"/>
<circle cx="374.60476774600465" cy="-59.311830294096524" fill="blue" r="2"/>
<circle cx="256.94604754441343" cy="-253.05752923343164" fill="blue" r="2"/>
<circle cx="139.28732734282903" cy="-106.80322817277158" fill="blue" r="2"/>
<circle cx="21.628607141237808" cy="-300.5489271121115" fill="blue" r="2"/>
<circle cx="383.9698869396534" cy="-154.29462605144664" fill="blue" r="2"/>
<circle cx="266.3111667380622" cy="-8.040324990786587" fill="blue" r="2"/>
<circle cx="148.65244653647778" cy="-201.7860239301217" fill="blue" r="2"/>
<circle cx="30.99372633488656" cy="-55.531722869461646" fill="blue" r="2"/>
<circle cx="393.33500613330216" cy="-249.2774218088016" fill="blue" r="2"/>
<circle cx="275.67628593171094" cy="-103.0231207481367" fill="blue" r="2"/>
<circle cx="158.0175657301197" cy="-296.76881968747665" fill="blue" r="2"/>
<circle cx="40.35884552853531" cy="-150.5145186268166" fill="blue" r="2"/>
<circle cx="402.7001253269509" cy="-4.260217566151709" fill="blue" r="2"/>
<circle cx="285.0414051253665" cy="-198.00591650549165" fill="blue" r="2"/>
<circle cx="167.3826849237821" cy="-51.75161544482677" fill="blue" r="2"/>
<circle cx="49.723964722184064" cy="-245.4973143841667" fill="blue" r="2"/>
<circle cx="412.06524452059966" cy="-99.24301332350666" fill="blue" r="2"/>
<circle cx="294.40652431901526" cy="-292.9887122628418" fill="blue" r="2"/>
<circle cx="176.74780411743086" cy="-146.73441120218172" fill="blue" r="2"/>
<circle cx="59.089083915832816" cy="-0.48011014151683185" fill="blue" r="2"/>
<circle cx="421.4303637142484" cy="-194.22580908085678" fill="blue" r="2"/>
<circle cx="303.771643512664" cy="-47.97150802019672" fill="blue" r="2"/>
<circle cx="186.1129233110796" cy="-241.71720695953184" fill="blue" r="2"/>
<circle cx="68.45420310949521" cy="-95.46290589887178" fill="blue" r="2"/>
<circle cx="430.79548290789717" cy="-289.2086048382117" fill="blue" r="2"/>
<circle cx="313.13676270631277" cy="-142.95430377754684" fill="blue" r="2"/>
<circle cx="195.47804250472836" cy="-336.7000027168868" fill="blue" r="2"/>
<circle cx="77.81932230314396" cy="-190.4457016562219" fill="blue" r="2"/>
<circle cx="440.1606021015459" cy="-44.191400595561845" fill="blue" r="2"/>
<circle cx="322.5018818999615" cy="-237.9370995349018" fill="blue" r="2"/>
<circle cx="204.84316169837712" cy="-91.6827984742369" fill="blue" r="2"/>
<circle cx="87.18444149679272" cy="-285.42849741357685" fill="blue" r="2"/>
<circle cx="449.52572129519467" cy="-139.17419635291196" fill="blue" r="2"/>
<circle cx="331.86700109361027" cy="-332.9198952922519" fill="blue" r="2"/>
<circle cx="214.20828089202587" cy="-186.66559423159185" fill="blue" r="2"/>
<circle cx="96.54956069044147" cy="-40.41129317092697" fill="blue" r="2"/>
<circle cx="458.89084048885707" cy="-234.1569921102669" fill="blue" r="2"/>
<circle cx="341.232120287259" cy="-87.90269104960686" fill="blue" r="2"/>
<circle cx="223.57340008567462" cy="-281.648389988942" fill="blue" r="2"/>
<circle cx="105.91467988409022" cy="-135.39408892828192" fill="blue" r="2"/>
<circle cx="468.2559596825058" cy="-329.13978786761703" fill="blue" r="2"/>
<circle cx="350.5972394809078" cy="-182.88548680695698" fill="blue" r="2"/>
<circle cx="232.93851927932337" cy="-36.63118574629692" fill="blue" r="2"/>
<circle cx="115.27979907773897" cy="-230.37688468563204" fill="blue" r="2"/>
<circle cx="477.62107887615457" cy="-84.12258362497198" fill="blue" r="2"/>
<circle cx="359.96235867457017" cy="-277.8682825643119" fill="blue" r="2"/>
<circle cx="242.30363847297212" cy="-131.61398150364704" fill="blue" r="2"/>
<circle cx="124.64491827138772" cy="-325.359680442987" fill="blue" r="2"/>
<circle cx="6.986198069803322" cy="-179.1053793823221" fill="blue" r="2"/>
<circle cx="369.3274778682189" cy="-32.851078321662044" fill="blue" r="2"/>
<circle cx="251.66875766662088" cy="-226.596777261002" fill="blue" r="2"/>
<circle cx="134.01003746503648" cy="-80.3424762003371" fill="blue" r="2"/>
<circle cx="16.351317263452074" cy="-274.08817513967705" fill="blue" r="2"/>
<circle cx="378.6925970618677" cy="-127.83387407901216" fill="blue" r="2"/>
<circle cx="261.03387686028327" cy="-321.5795730183521" fill="blue" r="2"/>
<circle cx="143.37515665868523" cy="-175.32527195769205" fill="blue" r="2"/>
<circle cx="25.716436457100826" cy="-29.070970897027166" fill="blue" r="2"/>
<circle cx="388.0577162555164" cy="-222.8166698363671" fill="blue" r="2"/>
<circle cx="270.398996053932" cy="-76.56236877570706" fill="blue" r="2"/>
<circle cx="152.74027585233398" cy="-270.30806771504217" fill="blue" r="2"/>
<circle cx="35.08155565074958" cy="-124.05376665438212" fill="blue" r="2"/>
<circle cx="397.4228354491652" cy="-317.79946559371723" fill="blue" r="2"/>
<circle cx="279.7641152475808" cy="-171.54516453305718" fill="blue" r="2"/>
<circle cx="162.10539504598273" cy="-25.29086347239712" fill="blue" r="2"/>
<circle cx="44.44667484439833" cy="-219.03656241173223" fill="blue" r="2"/>
<circle cx="406.78795464281393" cy="-72.78226135107218" fill="blue" r="2"/>
<circle cx="289.1292344412295" cy="-266.5279602904121" fill="blue" r="2"/>
<circle cx="171.47051423964513" cy="-120.27365922975207" fill="blue" r="2"/>
<circle cx="53.81179403804708" cy="-314.01935816908235" fill="blue" r="2"/>
<circle cx="416.1530738364627" cy="-167.7650571084223" fill="blue" r="2"/>
<circle cx="298.4943536348783" cy="-21.510756047762243" fill="blue" r="2"/>
<circle cx="180.83563343329388" cy="-215.2564549871022" fill="blue" r="2"/>
<circle cx="63.176913231695835" cy="-69.00215392644213" fill="blue" r="2"/>
<circle cx="425.51819303011143" cy="-262.7478528657724" fill="blue" r="2"/>
<circle cx="307.85947282852703" cy="-116.49355180511236" fill="blue" r="2"/>
<circle cx="190.20075262694263" cy="-310.2392507444523" fill="blue" r="2"/>
<circle cx="72.54203242535823" cy="-163.98494968379225" fill="blue" r="2"/>
<circle cx="434.8833122237602" cy="-17.730648623132197" fill="blue" r="2"/>
<circle cx="317.2245920221758" cy="-211.47634756246248" fill="blue" r="2"/>
<circle cx="199.56587182059138" cy="-65.22204650180242" fill="blue" r="2"/>
<circle cx="81.90715161900698" cy="-258.96774544114237" fill="blue" r="2"/>
<circle cx="444.24843141740894" cy="-112.71344438048231" fill="blue" r="2"/>
<circle cx="326.58971121582454" cy="-306.45914331982226" fill="blue" r="2"/>
<circle cx="208.93099101424013" cy="-160.20484225915254" fill="blue" r="2"/>
<circle cx="91.27227081265573" cy="-13.950541198492488" fill="blue" r="2"/>
<circle cx="453.6135506110577" cy="-207.69624013783243" fill="blue" r="2"/>
<circle cx="335.9548304094733" cy="-61.44193907717238" fill="blue" r="2"/>
<circle cx="218.2961102078889" cy="-255.18763801651232" fill="blue" r="2"/>
<circle cx="100.63739000630449" cy="-108.93333695585227" fill="blue" r="2"/>
<circle cx="462.9786698047201" cy="-302.67903589518255" fill="blue" r="2"/>
<circle cx="345.31994960312204" cy="-156.4247348345225" fill="blue" r="2"/>
<circle cx="227.66122940153764" cy="-10.170433773862442" fill="blue" r="2"/>
<circle cx="110.00250919995324" cy="-203.9161327132024" fill="blue" r="2"/>
<circle cx="472.34378899836884" cy="-57.66183165254233" fill="blue" r="2"/>
<circle cx="354.6850687967708" cy="-251.40753059187261" fill="blue" r="2"/>
<circle cx="237.0263485951864" cy="-105.15322953121256" fill="blue" r="2"/>
<circle cx="119.36762839360199" cy="-298.8989284705525" fill="blue" r="2"/>
<circle cx="1.7089081920175886" cy="-152.64462740989245" fill="blue" r="2"/>
<circle cx="364.0501879904332" cy="-6.390326349232396" fill="blue" r="2"/>
<circle cx="246.39146778883514" cy="-200.13602528856268" fill="blue" r="2"/>
<circle cx="128.73274758725074" cy="-53.88172422790262" fill="blue" r="2"/>
<circle cx="11.07402738566634" cy="-247.62742316724257" fill="blue" r="2"/>
<circle cx="373.41530718408194" cy="-101.37312210658251" fill="blue" r="2"/>
<circle cx="255.7565869824839" cy="-295.11882104592246" fill="blue" r="2"/>
<circle cx="138.0978667808995" cy="-148.86451998525274" fill="blue" r="2"/>
<circle cx="20.439146579315093" cy="-2.6102189245926866" fill="blue" r="2"/>
<circle cx="382.7804263777307" cy="-196.35591786393263" fill="blue" r="2"/>
<circle cx="265.1217061761463" cy="-50.10161680327258" fill="blue" r="2"/>
<circle cx="147.46298597454825" cy="-243.84731574261252" fill="blue" r="2"/>
<circle cx="29.804265772963845" cy="-97.59301468195247" fill="blue" r="2"/>
<circle cx="392.14554557137944" cy="-291.33871362128275" fill="blue" r="2"/>
<circle cx="274.48682536979504" cy="-145.0844125606227" fill="blue" r="2"/>
<circle cx="156.828105168197" cy="-338.83011149996264" fill="blue" r="2"/>
<circle cx="39.1693849666126" cy="-192.5758104393026" fill="blue" r="2"/>
<circle cx="401.5106647650282" cy="-46.32150937864253" fill="blue" r="2"/>
<circle cx="283.8519445634438" cy="-240.0672083179728" fill="blue" r="2"/>
<circle cx="166.19322436184575" cy="-93.81290725731276" fill="blue" r="2"/>
<circle cx="48.53450416026135" cy="-287.5586061966527" fill="blue" r="2"/>
<circle cx="410.87578395867695" cy="-141.30430513599265" fill="blue" r="2"/>
<circle cx="293.21706375709255" cy="-335.0500040753326" fill="blue" r="2"/>
<circle cx="175.55834355550815" cy="-188.79570301466288" fill="blue" r="2"/>
<circle cx="57.8996233539101" cy="-42.54140195400282" fill="blue" r="2"/>
<circle cx="420.2409031523257" cy="-236.28710089334277" fill="blue" r="2"/>
<circle cx="302.5821829507413" cy="-90.03279983268271" fill="blue" r="2"/>
<circle cx="184.9234627491569" cy="-283.77849877202266" fill="blue" r="2"/>
<circle cx="67.26474254755885" cy="-137.52419771135294" fill="blue" r="2"/>
<circle cx="429.60602234597445" cy="-331.2698966506929" fill="blue" r="2"/>
<circle cx="311.94730214439005" cy="-185.01559559003283" fill="blue" r="2"/>
<circle cx="194.28858194280565" cy="-38.761294529372776" fill="blue" r="2"/>
<circle cx="76.62986174122125" cy="-232.50699346871272" fill="blue" r="2"/>
<circle cx="438.9711415396232" cy="-86.252692408043" fill="blue" r="2"/>
<circle cx="321.3124213380388" cy="-279.99839134738295" fill="blue" r="2"/>
<circle cx="203.6537011364544" cy="-133.7440902867229" fill="blue" r="2"/>
<circle cx="85.99498093487" cy="-327.48978922606284" fill="blue" r="2"/>
<circle cx="448.33626073327196" cy="-181.23548816540278" fill="blue" r="2"/>
<circle cx="330.67754053168755" cy="-34.98118710474273" fill="blue" r="2"/>
<circle cx="213.01882033010315" cy="-228.726886044073" fill="blue" r="2"/>
<circle cx="95.36010012851875" cy="-82.47258498341296" fill="blue" r="2"/>
<circle cx="457.7013799269207" cy="-276.2182839227529" fill="blue" r="2"/>
<circle cx="340.0426597253363" cy="-129.96398286209285" fill="blue" r="2"/>
<circle cx="222.3839395237519" cy="-323.7096818014328" fill="blue" r="2"/>
<circle cx="104.7252193221675" cy="-177.45538074076308" fill="blue" r="2"/>
<circle cx="467.0664991205831" cy="-31.20107968010302" fill="blue" r="2"/>
<circle cx="349.40777891898506" cy="-224.94677861944297" fill="blue" r="2"/>
<circle cx="231.74905871740066" cy="-78.69247755878291" fill="blue" r="2"/>
<circle cx="114.09033851581626" cy="-272.43817649812286" fill="blue" r="2"/>
<circle cx="476.43161831423186" cy="-126.18387543745314" fill="blue" r="2"/>
<circle cx="358.7728981126338" cy="-319.9295743767931" fill="blue" r="2"/>
<circle cx="241.1141779110494" cy="-173.67527331613303" fill="blue" r="2"/>
<circle cx="123.45545770946501" cy="-27.420972255472975" fill="blue" r="2"/>
<circle cx="5.796737507880607" cy="-221.16667119481292" fill="blue" r="2"/>
<circle cx="368.1380173062962" cy="-74.9123701341432" fill="blue" r="2"/>
<circle cx="250.47929710469816" cy="-268.65806907348315" fill="blue" r="2"/>
<circle cx="132.82057690311376" cy="-122.4037680128231" fill="blue" r="2"/>
<circle cx="15.16185670152936" cy="-316.14946695216304" fill="blue" r="2"/>
<circle cx="377.50313649994496" cy="-169.89516589150298" fill="blue" r="2"/>
<circle cx="259.8444162983469" cy="-23.64086483084293" fill="blue" r="2"/>
<circle cx="142.1856960967625" cy="-217.3865637701732" fill="blue" r="2"/>
<circle cx="24.52697589517811" cy="-71.13226270951316" fill="blue" r="2"/>
<circle cx="386.8682556935937" cy="-264.8779616488531" fill="blue" r="2"/>
<circle cx="269.2095354920093" cy="-118.62366058819305" fill="blue" r="2"/>
<circle cx="151.55081529041126" cy="-312.369359527533" fill="blue" r="2"/>
<circle cx="33.89209508882686" cy="-166.11505846686327" fill="blue" r="2"/>
<circle cx="396.23337488724246" cy="-19.86075740620322" fill="blue" r="2"/>
<circle cx="278.57465468565806" cy="-213.60645634554317" fill="blue" r="2"/>
<circle cx="160.91593448406002" cy="-67.35215528488311" fill="blue" r="2"/>
<circle cx="43.257214282475616" cy="-261.09785422422306" fill="blue" r="2"/>
<circle cx="405.5984940808912" cy="-114.84355316355334" fill="blue" r="2"/>
<circle cx="287.9397738793068" cy="-308.5892521028933" fill="blue" r="2"/>
<circle cx="170.28105367770877" cy="-162.33495104223323" fill="blue" r="2"/>
<circle cx="52.62233347612437" cy="-16.080649981573174" fill="blue" r="2"/>
<circle cx="414.96361327453997" cy="-209.82634892091312" fill="blue" r="2"/>
<circle cx="297.30489307295557" cy="-63.5720478602434" fill="blue" r="2"/>
<circle cx="179.64617287137116" cy="-257.31774679958335" fill="blue" r="2"/>
<circle cx="61.98745266977312" cy="-111.06344573892329" fill="blue" r="2"/>
<circle cx="424.3287324681887" cy="-304.80914467826324" fill="blue" r="2"/>
<circle cx="306.6700122666043" cy="-158.55484361760318" fill="blue" r="2"/>
<circle cx="189.01129206501992" cy="-12.300542556933465" fill="blue" r="2"/>
<circle cx="71.35257186342187" cy="-206.0462414962734" fill="blue" r="2"/>
<circle cx="433.69385166183747" cy="-59.791940435613355" fill="blue" r="2"/>
<circle cx="316.0351314602394" cy="-253.5376393749533" fill="blue" r="2"/>
<circle cx="198.37641125866867" cy="-107.28333831429325" fill="blue" r="2"/>
<circle cx="80.71769105707062" cy="-301.0290372536332" fill="blue" r="2"/>
<circle cx="443.05897085549987" cy="-154.77473619296347" fill="blue" r="2"/>
<circle cx="325.4002506539018" cy="-8.520435132303419" fill="blue" r="2"/>
<circle cx="207.74153045230378" cy="-202.26613407164336" fill="blue" r="2"/>
<circle cx="90.08281025073302" cy="-56.01183301098331" fill="blue" r="2"/>
<circle cx="452.424090049135" cy="-249.75753195032325" fill="blue" r="2"/>
<circle cx="334.7653698475642" cy="-103.50323088965354" fill="blue" r="2"/>
<circle cx="217.10664964596617" cy="-297.2489298289935" fill="blue" r="2"/>
<circle cx="99.44792944436813" cy="-150.99462876833343" fill="blue" r="2"/>
<circle cx="461.78920924279737" cy="-4.740327707673373" fill="blue" r="2"/>
<circle cx="344.1304890411993" cy="-198.48602664701332" fill="blue" r="2"/>
<circle cx="226.47176883962857" cy="-52.2317255863436" fill="blue" r="2"/>
<circle cx="108.81304863803052" cy="-245.97742452568355" fill="blue" r="2"/>
<circle cx="471.1543284364325" cy="-99.72312346502349" fill="blue" r="2"/>
<circle cx="353.4956082348617" cy="-293.46882240436344" fill="blue" r="2"/>
<circle cx="235.83688803326368" cy="-147.21452134370338" fill="blue" r="2"/>
<circle cx="118.17816783166563" cy="-0.9602202830336637" fill="blue" r="2"/>
<circle cx="0.5194476300948736" cy="-194.7059192223736" fill="blue" r="2"/>
<circle cx="362.86072742849683" cy="-48.451618161713554" fill="blue" r="2"/>
<circle cx="245.20200722692607" cy="-242.1973171010535" fill="blue" r="2"/>
<circle cx="127.54328702532803" cy="-95.94301604039345" fill="blue" r="2"/>
<circle cx="9.884566823729983" cy="-289.6887149797334" fill="blue" r="2"/>
<circle cx="372.2258466221592" cy="-143.43441391906367" fill="blue" r="2"/>
<circle cx="254.56712642056118" cy="-337.1801128584036" fill="blue" r="2"/>
<circle cx="136.90840621899042" cy="-190.92581179774356" fill="blue" r="2"/>
<circle cx="19.249686017392378" cy="-44.67151073708351" fill="blue" r="2"/>
<circle cx="381.59096581579433" cy="-238.41720967642345" fill="blue" r="2"/>
<circle cx="263.9322456142236" cy="-92.16290861575374" fill="blue" r="2"/>
<circle cx="146.27352541262553" cy="-285.9086075550937" fill="blue" r="2"/>
<circle cx="28.614805211027488" cy="-139.65430649443363" fill="blue" r="2"/>
<circle cx="390.95608500945673" cy="-333.4000054337736" fill="blue" r="2"/>
<circle cx="273.2973648078587" cy="-187.14570437311352" fill="blue" r="2"/>
<circle cx="155.63864460628793" cy="-40.8914033124438" fill="blue" r="2"/>
<circle cx="37.97992440468988" cy="-234.63710225178374" fill="blue" r="2"/>
<circle cx="400.32120420309184" cy="-88.38280119112369" fill="blue" r="2"/>
<circle cx="282.6624840015211" cy="-282.12850013046364" fill="blue" r="2"/>
<circle cx="165.00376379992304" cy="-135.87419906980358" fill="blue" r="2"/>
<circle cx="47.34504359835228" cy="-329.61989800913386" fill="blue" r="2"/>
<circle cx="409.68632339675423" cy="-183.3655969484738" fill="blue" r="2"/>
<circle cx="292.0276031951562" cy="-37.11129588781375" fill="blue" r="2"/>
<circle cx="174.36888299358543" cy="-230.8569948271537" fill="blue" r="2"/>
<circle cx="56.710162791987386" cy="-84.60269376649364" fill="blue" r="2"/>
<circle cx="419.05144259038934" cy="-278.3483927058239" fill="blue" r="2"/>
<circle cx="301.3927223888186" cy="-132.09409164516387" fill="blue" r="2"/>
<circle cx="183.73400218722054" cy="-325.8397905845038" fill="blue" r="2"/>
<circle cx="66.07528198564978" cy="-179.58548952384376" fill="blue" r="2"/>
<circle cx="428.41656178405174" cy="-33.33118846318371" fill="blue" r="2"/>
<circle cx="310.7578415824537" cy="-227.07688740252365" fill="blue" r="2"/>
<circle cx="193.09912138088293" cy="-80.82258634185393" fill="blue" r="2"/>
<circle cx="75.44040117928489" cy="-274.5682852811939" fill="blue" r="2"/>
<circle cx="437.78168097771413" cy="-128.31398422053383" fill="blue" r="2"/>
<circle cx="320.1229607761161" cy="-322.05968315987377" fill="blue" r="2"/>
<circle cx="202.46424057451804" cy="-175.80538209921372" fill="blue" r="2"/>
<circle cx="84.80552037294729" cy="-29.551081038543998" fill="blue" r="2"/>
<circle cx="447.14680017134924" cy="-223.29677997788394" fill="blue" r="2"/>
<circle cx="329.4880799697785" cy="-77.04247891722389" fill="blue" r="2"/>
<circle cx="211.82935976818044" cy="-270.78817785656383" fill="blue" r="2"/>
<circle cx="94.1706395665824" cy="-124.53387679590378" fill="blue" r="2"/>
<circle cx="456.51191936501164" cy="-318.27957573523406" fill="blue" r="2"/>
<circle cx="338.8531991634136" cy="-172.025274674574" fill="blue" r="2"/>
<circle cx="221.19447896181555" cy="-25.770973613913952" fill="blue" r="2"/>
<circle cx="103.53575876024479" cy="-219.5166725532539" fill="blue" r="2"/>
<circle cx="465.87703855864675" cy="-73.26237149259384" fill="blue" r="2"/>
<circle cx="348.218318357076" cy="-267.0080704319241" fill="blue" r="2"/>
<circle cx="230.55959815547794" cy="-120.75376937126407" fill="blue" r="2"/>
<circle cx="112.9008779538799" cy="-314.499468310604" fill="blue" r="2"/>
<circle cx="475.24215775230914" cy="-168.24516724994396" fill="blue" r="2"/>
<circle cx="357.5834375507111" cy="-21.990866189283906" fill="blue" r="2"/>
<circle cx="239.92471734914034" cy="-215.73656512862385" fill="blue" r="2"/>
<circle cx="122.2659971475423" cy="-69.48226406795413" fill="blue" r="2"/>
<circle cx="4.60727694594425" cy="-263.2279630072941" fill="blue" r="2"/>
<circle cx="366.9485567443735" cy="-116.97366194663402" fill="blue" r="2"/>
<circle cx="249.28983654277545" cy="-310.71936088597397" fill="blue" r="2"/>
<circle cx="131.6311163411774" cy="-164.46505982531392" fill="blue" r="2"/>
<circle cx="13.972396139606644" cy="-18.210758764644197" fill="blue" r="2"/>
<circle cx="376.3136759380086" cy="-211.95645770398414" fill="blue" r="2"/>
<circle cx="258.65495573643784" cy="-65.70215664332409" fill="blue" r="2"/>
<circle cx="140.9962355348398" cy="-259.44785558266403" fill="blue" r="2"/>
<circle cx="23.337515333241754" cy="-113.19355452200398" fill="blue" r="2"/>
<circle cx="385.678795131671" cy="-306.93925346133426" fill="blue" r="2"/>
<circle cx="268.02007493007295" cy="-160.6849524006742" fill="blue" r="2"/>
<circle cx="150.3613547285022" cy="-14.430651340014151" fill="blue" r="2"/>
<circle cx="32.70263452690415" cy="-208.1763502793541" fill="blue" r="2"/>
<circle cx="395.0439143253061" cy="-61.92204921869404" fill="blue" r="2"/>
<circle cx="277.38519412373535" cy="-255.66774815802432" fill="blue" r="2"/>
<circle cx="159.7264739221373" cy="-109.41344709736427" fill="blue" r="2"/>
<circle cx="42.06775372056654" cy="-303.1591460367042" fill="blue" r="2"/>
<circle cx="404.4090335189685" cy="-156.90484497604416" fill="blue" r="2"/>
<circle cx="286.75031331737046" cy="-10.650543915384105" fill="blue" r="2"/>
<circle cx="169.0915931157997" cy="-204.39624285472405" fill="blue" r="2"/>
<circle cx="51.43287291420165" cy="-58.14194179405433" fill="blue" r="2"/>
<circle cx="413.7741527126036" cy="-251.88764073339428" fill="blue" r="2"/>
<circle cx="296.11543251103285" cy="-105.63333967273422" fill="blue" r="2"/>
<circle cx="178.4567123094348" cy="-299.37903861207417" fill="blue" r="2"/>
<circle cx="60.79799210786405" cy="-153.1247375514141" fill="blue" r="2"/>
<circle cx="423.139271906266" cy="-6.870436490744396" fill="blue" r="2"/>
<circle cx="305.48055170466796" cy="-200.61613543008434" fill="blue" r="2"/>
<circle cx="187.8218315030972" cy="-54.36183436942429" fill="blue" r="2"/>
<circle cx="70.16311130149916" cy="-248.10753330876423" fill="blue" r="2"/>
<circle cx="432.5043910999284" cy="-101.85323224810418" fill="blue" r="2"/>
<circle cx="314.84567089833035" cy="-295.59893118743446" fill="blue" r="2"/>
<circle cx="197.1869506967323" cy="-149.3446301267744" fill="blue" r="2"/>
<circle cx="79.52823049516155" cy="-3.09032906611435" fill="blue" r="2"/>
<circle cx="441.8695102935635" cy="-196.8360280054543" fill="blue" r="2"/>
<circle cx="324.21079009196546" cy="-50.58172694479424" fill="blue" r="2"/>
<circle cx="206.5520698903947" cy="-244.32742588412452" fill="blue" r="2"/>
<circle cx="88.89334968879666" cy="-98.07312482346447" fill="blue" r="2"/>
<circle cx="451.2346294872259" cy="-291.8188237628044" fill="blue" r="2"/>
<circle cx="333.57590928562786" cy="-145.56452270214436" fill="blue" r="2"/>
<circle cx="215.91718908402981" cy="-339.3102216414843" fill="blue" r="2"/>
<circle cx="98.25846888245906" cy="-193.05592058082425" fill="blue" r="2"/>
<circle cx="460.599748680861" cy="-46.801619520164195" fill="blue" r="2"/>
<circle cx="342.94102847929025" cy="-240.54731845950414" fill="blue" r="2"/>
<circle cx="225.2823082776922" cy="-94.29301739882476" fill="blue" r="2"/>
<circle cx="107.62358807609417" cy="-288.0387163381647" fill="blue" r="2"/>
<circle cx="469.9648678745234" cy="-141.78441527750465" fill="blue" r="2"/>
<circle cx="352.30614767292536" cy="-335.5301142168446" fill="blue" r="2"/>
<circle cx="234.6474274713546" cy="-189.27581315618454" fill="blue" r="2"/>
<circle cx="116.98870726975656" cy="-43.021512095524486" fill="blue" r="2"/>
<circle cx="479.3299870681585" cy="-236.76721103486443" fill="blue" r="2"/>
<circle cx="361.67126686658776" cy="-90.51290997420438" fill="blue" r="2"/>
<circle cx="244.0125466649897" cy="-284.2586089135443" fill="blue" r="2"/>
<circle cx="126.35382646339167" cy="-138.00430785288427" fill="blue" r="2"/>
<circle cx="8.69510626182091" cy="-331.7500067922049" fill="blue" r="2"/>
<circle cx="371.03638606022287" cy="-185.49570573154483" fill="blue" r="2"/>
<circle cx="253.3776658586521" cy="-39.241404670884776" fill="blue" r="2"/>
<circle cx="135.71894565705406" cy="-232.98710361022472" fill="blue" r="2"/>
<circle cx="18.06022545545602" cy="-86.73280254956467" fill="blue" r="2"/>
<circle cx="380.40150525388526" cy="-280.4785014889046" fill="blue" r="2"/>
<circle cx="262.7427850522872" cy="-134.22420042824456" fill="blue" r="2"/>
<circle cx="145.08406485071646" cy="-327.9698993675845" fill="blue" r="2"/>
<circle cx="27.425344649118415" cy="-181.71559830692445" fill="blue" r="2"/>
<circle cx="389.76662444752037" cy="-35.461297246264394" fill="blue" r="2"/>
<circle cx="272.1079042459496" cy="-229.20699618560434" fill="blue" r="2"/>
<circle cx="154.44918404435157" cy="-82.95269512492496" fill="blue" r="2"/>
<circle cx="36.790463842753525" cy="-276.6983940642649" fill="blue" r="2"/>
<circle cx="399.13174364118277" cy="-130.44409300360485" fill="blue" r="2"/>
<circle cx="281.4730234395847" cy="-324.1897919429448" fill="blue" r="2"/>
<circle cx="163.81430323801396" cy="-177.93549088228474" fill="blue" r="2"/>
<circle cx="46.15558303641592" cy="-31.681189821624685" fill="blue" r="2"/>
<circle cx="408.4968628348179" cy="-225.42688876096463" fill="blue" r="2"/>
<circle cx="290.8381426332471" cy="-79.17258770030458" fill="blue" r="2"/>
<circle cx="173.17942243164907" cy="-272.9182866396445" fill="blue" r="2"/>
<circle cx="55.520702230078314" cy="-126.66398557898447" fill="blue" r="2"/>
<circle cx="417.86198202848027" cy="-320.4096845183051" fill="blue" r="2"/>
<circle cx="300.2032618268822" cy="-174.15538345764503" fill="blue" r="2"/>
<circle cx="182.54454162531147" cy="-27.901082396984975" fill="blue" r="2"/>
<circle cx="64.88582142371342" cy="-221.64678133632492" fill="blue" r="2"/>
<circle cx="427.2271012221154" cy="-75.39248027566487" fill="blue" r="2"/>
<circle cx="309.5683810205446" cy="-269.1381792150048" fill="blue" r="2"/>
<circle cx="191.90966081894658" cy="-122.88387815434476" fill="blue" r="2"/>
<circle cx="74.25094061737582" cy="-316.6295770936847" fill="blue" r="2"/>
<circle cx="436.5922204157778" cy="-170.37527603302465" fill="blue" r="2"/>
<circle cx="318.93350021417973" cy="-24.120974972364593" fill="blue" r="2"/>
<circle cx="201.27478001260897" cy="-217.86667391170454" fill="blue" r="2"/>
<circle cx="83.61605981101093" cy="-71.61237285102516" fill="blue" r="2"/>
<circle cx="445.95733960944017" cy="-265.3580717903651" fill="blue" r="2"/>
<circle cx="328.2986194078421" cy="-119.10377072970505" fill="blue" r="2"/>
<circle cx="210.63989920624408" cy="-312.849469669045" fill="blue" r="2"/>
<circle cx="92.98117900467332" cy="-166.59516860838494" fill="blue" r="2"/>
<circle cx="455.3224588030753" cy="-20.340867547724883" fill="blue" r="2"/>
<circle cx="337.6637386015045" cy="-214.08656648706483" fill="blue" r="2"/>
<circle cx="220.00501839990648" cy="-67.83226542640477" fill="blue" r="2"/>
<circle cx="102.34629819830843" cy="-261.5779643657447" fill="blue" r="2"/>
<circle cx="464.6875779967377" cy="-115.32366330508466" fill="blue" r="2"/>
<circle cx="347.02885779513963" cy="-309.0693622444053" fill="blue" r="2"/>
<circle cx="229.37013759354159" cy="-162.81506118374523" fill="blue" r="2"/>
<circle cx="111.71141739197083" cy="-16.560760123085174" fill="blue" r="2"/>
<circle cx="474.0526971903728" cy="-210.30645906242512" fill="blue" r="2"/>
<circle cx="356.393976988802" cy="-64.05215800176506" fill="blue" r="2"/>
<circle cx="238.73525678720398" cy="-257.797856941105" fill="blue" r="2"/>
<circle cx="121.07653658560594" cy="-111.54355588044496" fill="blue" r="2"/>
<circle cx="3.417816384035177" cy="-305.2892548197849" fill="blue" r="2"/>
<circle cx="365.75909618243713" cy="-159.03495375912485" fill="blue" r="2"/>
<circle cx="248.10037598086637" cy="-12.780652698464792" fill="blue" r="2"/>
<circle cx="130.44165577926833" cy="-206.52635163780474" fill="blue" r="2"/>
<circle cx="12.782935577670287" cy="-60.272050577125356" fill="blue" r="2"/>
<circle cx="375.1242153760995" cy="-254.0177495164653" fill="blue" r="2"/>
<circle cx="257.4654951745015" cy="-107.76344845580525" fill="blue" r="2"/>
<circle cx="139.80677497290344" cy="-301.5091473951452" fill="blue" r="2"/>
<circle cx="22.14805477133268" cy="-155.25484633448514" fill="blue" r="2"/>
<circle cx="384.48933456973464" cy="-9.000545273825082" fill="blue" r="2"/>
<circle cx="266.8306143681639" cy="-202.74624421316503" fill="blue" r="2"/>
<circle cx="149.17189416656583" cy="-56.49194315250497" fill="blue" r="2"/>
<circle cx="31.51317396496779" cy="-250.23764209184492" fill="blue" r="2"/>
<circle cx="393.85445376339703" cy="-103.98334103118486" fill="blue" r="2"/>
<circle cx="276.195733561799" cy="-297.7290399705055" fill="blue" r="2"/>
<circle cx="158.53701336022823" cy="-151.47473890984543" fill="blue" r="2"/>
<circle cx="40.878293158630186" cy="-5.220437849185373" fill="blue" r="2"/>
<circle cx="403.21957295703214" cy="-198.96613678852532" fill="blue" r="2"/>
<circle cx="285.5608527554614" cy="-52.711835727865264" fill="blue" r="2"/>
<circle cx="167.90213255386334" cy="-246.4575346672052" fill="blue" r="2"/>
<circle cx="50.24341235229258" cy="-100.20323360654515" fill="blue" r="2"/>
<circle cx="412.58469215069454" cy="-293.9489325458851" fill="blue" r="2"/>
<circle cx="294.9259719490965" cy="-147.69463148522505" fill="blue" r="2"/>
<circle cx="177.26725174752573" cy="-1.4403304245649906" fill="blue" r="2"/>
<circle cx="59.60853154592769" cy="-195.18602936390494" fill="blue" r="2"/>
<circle cx="421.94981134432965" cy="-48.931728303225555" fill="blue" r="2"/>
<circle cx="304.2910911427589" cy="-242.6774272425655" fill="blue" r="2"/>
<circle cx="186.63237094116084" cy="-96.42312618190545" fill="blue" r="2"/>
<circle cx="68.97365073959008" cy="-290.1688251212454" fill="blue" r="2"/>
<circle cx="431.31493053799204" cy="-143.91452406058534" fill="blue" r="2"/>
<circle cx="313.656210336394" cy="-337.6602229999253" fill="blue" r="2"/>
<circle cx="195.99749013482324" cy="-191.40592193926523" fill="blue" r="2"/>
<circle cx="78.3387699332252" cy="-45.15162087860517" fill="blue" r="2"/>
<circle cx="440.68004973165444" cy="-238.89731981794512" fill="blue" r="2"/>
<circle cx="323.0213295300564" cy="-92.64301875728506" fill="blue" r="2"/>
<circle cx="205.36260932845835" cy="-286.3887176966057" fill="blue" r="2"/>
<circle cx="87.70388912688759" cy="-140.13441663594563" fill="blue" r="2"/>
<circle cx="450.04516892528954" cy="-333.8801155752856" fill="blue" r="2"/>
<circle cx="332.3864487236915" cy="-187.62581451462552" fill="blue" r="2"/>
<circle cx="214.72772852212074" cy="-41.37151345396546" fill="blue" r="2"/>
<circle cx="97.0690083205227" cy="-235.1172123933054" fill="blue" r="2"/>
<circle cx="459.41028811895194" cy="-88.86291133264535" fill="blue" r="2"/>
<circle cx="341.7515679173539" cy="-282.6086102719853" fill="blue" r="2"/>
<circle cx="224.09284771575585" cy="-136.35430921132524" fill="blue" r="2"/>
<circle cx="106.43412751418509" cy="-330.1000081506652" fill="blue" r="2"/>
<circle cx="468.77540731258705" cy="-183.84570709000513" fill="blue" r="2"/>
<circle cx="351.1166871110163" cy="-37.59140602932575" fill="blue" r="2"/>
<circle cx="233.45796690941825" cy="-231.3371049686657" fill="blue" r="2"/>
<circle cx="115.7992467078202" cy="-85.08280390800564" fill="blue" r="2"/>
<circle cx="478.14052650624944" cy="-278.8285028473456" fill="blue" r="2"/>
<circle cx="360.4818063046514" cy="-132.57420178668553" fill="blue" r="2"/>
<circle cx="242.82308610305336" cy="-326.3199007260255" fill="blue" r="2"/>
<circle cx="125.1643659014826" cy="-180.06559966536543" fill="blue" r="2"/>
<circle cx="7.505645699884553" cy="-33.81129860470537" fill="blue" r="2"/>
<circle cx="369.8469254983138" cy="-227.55699754404532" fill="blue" r="2"/>
<circle cx="252.18820529671575" cy="-81.30269648338526" fill="blue" r="2"/>
<circle cx="134.5294850951177" cy="-275.0483954227059" fill="blue" r="2"/>
<circle cx="16.870764893546948" cy="-128.79409436204583" fill="blue" r="2"/>
<circle cx="379.2120446919489" cy="-322.53979330138577" fill="blue" r="2"/>
<circle cx="261.55332449037815" cy="-176.28549224072572" fill="blue" r="2"/>
<circle cx="143.8946042887801" cy="-30.03119118006566" fill="blue" r="2"/>
<circle cx="26.235884087182058" cy="-223.7768901194056" fill="blue" r="2"/>
<circle cx="388.5771638856113" cy="-77.52258905874555" fill="blue" r="2"/>
<circle cx="270.91844368401325" cy="-271.2682879980855" fill="blue" r="2"/>
<circle cx="153.2597234824425" cy="-125.01398693742544" fill="blue" r="2"/>
<circle cx="35.60100328084445" cy="-318.7596858767654" fill="blue" r="2"/>
<circle cx="397.9422830792464" cy="-172.505384816086" fill="blue" r="2"/>
<circle cx="280.28356287767565" cy="-26.251083755425952" fill="blue" r="2"/>
<circle cx="162.6248426760776" cy="-219.9967826947659" fill="blue" r="2"/>
<circle cx="44.96612247447956" cy="-73.74248163410584" fill="blue" r="2"/>
<circle cx="407.3074022729088" cy="-267.4881805734458" fill="blue" r="2"/>
<circle cx="289.64868207131076" cy="-121.23387951278573" fill="blue" r="2"/>
<circle cx="171.98996186974" cy="-314.9795784521257" fill="blue" r="2"/>
<circle cx="54.331241668141956" cy="-168.72527739146562" fill="blue" r="2"/>
<circle cx="416.6725214665439" cy="-22.47097633080557" fill="blue" r="2"/>
<circle cx="299.01380126497315" cy="-216.21667527014552" fill="blue" r="2"/>
<circle cx="181.3550810633751" cy="-69.96237420948546" fill="blue" r="2"/>
<circle cx="63.69636086180435" cy="-263.7080731488061" fill="blue" r="2"/>
<circle cx="426.0376406602063" cy="-117.45377208814602" fill="blue" r="2"/>
<circle cx="308.37892045860826" cy="-311.19947102748597" fill="blue" r="2"/>
<circle cx="190.7202002570375" cy="-164.94516996682592" fill="blue" r="2"/>
<circle cx="73.06148005543946" cy="-18.69086890616586" fill="blue" r="2"/>
<circle cx="435.4027598538414" cy="-212.4365678455058" fill="blue" r="2"/>
<circle cx="317.74403965227066" cy="-66.18226678484575" fill="blue" r="2"/>
<circle cx="200.0853194506726" cy="-259.9279657241857" fill="blue" r="2"/>
<circle cx="82.42659924910186" cy="-113.67366466352564" fill="blue" r="2"/>
<circle cx="444.7678790475038" cy="-307.4193636028656" fill="blue" r="2"/>
<circle cx="327.10915884590577" cy="-161.1650625421862" fill="blue" r="2"/>
<circle cx="209.450438644335" cy="-14.910761481526151" fill="blue" r="2"/>
<circle cx="91.79171844273696" cy="-208.6564604208661" fill="blue" r="2"/>
<circle cx="454.1329982411662" cy="-62.40215936020604" fill="blue" r="2"/>
<circle cx="336.47427803956816" cy="-256.147858299546" fill="blue" r="2"/>
<circle cx="218.81555783797012" cy="-109.89355723888593" fill="blue" r="2"/>
<circle cx="101.15683763639936" cy="-303.6392561782259" fill="blue" r="2"/>
<circle cx="463.4981174348013" cy="-157.38495511756582" fill="blue" r="2"/>
<circle cx="345.83939723323056" cy="-11.130654056905769" fill="blue" r="2"/>
<circle cx="228.1806770316325" cy="-204.8763529962457" fill="blue" r="2"/>
<circle cx="110.52195683003447" cy="-58.62205193558566" fill="blue" r="2"/>
<circle cx="472.8632366284637" cy="-252.36775087490628" fill="blue" r="2"/>
<circle cx="355.20451642686567" cy="-106.11344981424622" fill="blue" r="2"/>
<circle cx="237.54579622526762" cy="-299.85914875358617" fill="blue" r="2"/>
<circle cx="119.88707602369686" cy="-153.6048476929261" fill="blue" r="2"/>
<circle cx="2.2283558220988198" cy="-7.3505466322660595" fill="blue" r="2"/>
<circle cx="364.56963562052806" cy="-201.096245571606" fill="blue" r="2"/>
<circle cx="246.91091541893002" cy="-54.84194451094595" fill="blue" r="2"/>
<circle cx="129.25219521733197" cy="-248.5876434502859" fill="blue" r="2"/>
<circle cx="11.593475015761214" cy="-102.33334238962584" fill="blue" r="2"/>
<circle cx="373.93475481416317" cy="-296.0790413289658" fill="blue" r="2"/>
<circle cx="256.2760346125924" cy="-149.8247402682864" fill="blue" r="2"/>
<circle cx="138.61731441099437" cy="-3.5704392076263503" fill="blue" r="2"/>
<circle cx="20.958594209396324" cy="-197.3161381469663" fill="blue" r="2"/>
<circle cx="383.29987400782557" cy="-51.06183708630624" fill="blue" r="2"/>
<circle cx="265.6411538062275" cy="-244.8075360256462" fill="blue" r="2"/>
<circle cx="147.98243360462948" cy="-98.55323496498613" fill="blue" r="2"/>
<circle cx="30.32371340305872" cy="-292.2989339043261" fill="blue" r="2"/>
<circle cx="392.6649932014607" cy="-146.04463284366602" fill="blue" r="2"/>
<circle cx="275.0062729998899" cy="-339.79033178300597" fill="blue" r="2"/>
<circle cx="157.34755279829187" cy="-193.5360307223459" fill="blue" r="2"/>
<circle cx="39.68883259669383" cy="-47.28172966168586" fill="blue" r="2"/>
<circle cx="402.03011239512307" cy="-241.02742860100648" fill="blue" r="2"/>
<circle cx="284.371392193525" cy="-94.77312754034642" fill="blue" r="2"/>
<circle cx="166.71267199195427" cy="-288.51882647968637" fill="blue" r="2"/>
<circle cx="49.05395179035622" cy="-142.2645254190263" fill="blue" r="2"/>
<circle cx="411.3952315887582" cy="-336.01022435836626" fill="blue" r="2"/>
<circle cx="293.7365113871874" cy="-189.7559232977062" fill="blue" r="2"/>
<circle cx="176.07779118558938" cy="-43.50162223704615" fill="blue" r="2"/>
<circle cx="58.41907098401862" cy="-237.2473211763861" fill="blue" r="2"/>
<circle cx="420.7603507824206" cy="-90.99302011572604" fill="blue" r="2"/>
<circle cx="303.10163058082253" cy="-284.738719055066" fill="blue" r="2"/>
<circle cx="185.44291037925177" cy="-138.4844179943866" fill="blue" r="2"/>
<circle cx="67.78419017765373" cy="-332.23011693372655" fill="blue" r="2"/>
<circle cx="430.1254699760557" cy="-185.9758158730665" fill="blue" r="2"/>
<circle cx="312.4667497744849" cy="-39.72151481240644" fill="blue" r="2"/>
<circle cx="194.80802957288688" cy="-233.46721375174639" fill="blue" r="2"/>
<circle cx="77.14930937131612" cy="-87.21291269108633" fill="blue" r="2"/>
<circle cx="439.4905891697181" cy="-280.9586116304263" fill="blue" r="2"/>
<circle cx="321.83186896812003" cy="-134.70431056976622" fill="blue" r="2"/>
<circle cx="204.17314876654928" cy="-328.45000950910617" fill="blue" r="2"/>
<circle cx="86.51442856495123" cy="-182.1957084484461" fill="blue" r="2"/>
<circle cx="448.8557083633805" cy="-35.94140738778606" fill="blue" r="2"/>
<circle cx="331.19698816178243" cy="-229.68710632710668" fill="blue" r="2"/>
<circle cx="213.53826796018438" cy="-83.43280526644662" fill="blue" r="2"/>
<circle cx="95.87954775861363" cy="-277.17850420578657" fill="blue" r="2"/>
<circle cx="458.2208275570156" cy="-130.9242031451265" fill="blue" r="2"/>
<circle cx="340.56210735541754" cy="-324.66990208446646" fill="blue" r="2"/>
<circle cx="222.90338715384678" cy="-178.4156010238064" fill="blue" r="2"/>
<circle cx="105.24466695224874" cy="-32.16129996314635" fill="blue" r="2"/>
<circle cx="467.585946750678" cy="-225.9069989024863" fill="blue" r="2"/>
<circle cx="349.92722654907993" cy="-79.65269784182624" fill="blue" r="2"/>
<circle cx="232.2685063474819" cy="-273.3983967811662" fill="blue" r="2"/>
<circle cx="114.60978614591113" cy="-127.1440957204868" fill="blue" r="2"/>
<circle cx="476.9510659443131" cy="-320.88979465982675" fill="blue" r="2"/>
<circle cx="359.2923457427423" cy="-174.6354935991667" fill="blue" r="2"/>
<circle cx="241.63362554114428" cy="-28.38119253850664" fill="blue" r="2"/>
<circle cx="123.97490533954624" cy="-222.12689147784658" fill="blue" r="2"/>
<circle cx="6.316185137975481" cy="-75.87259041718653" fill="blue" r="2"/>
<circle cx="368.65746493637744" cy="-269.6182893565265" fill="blue" r="2"/>
<circle cx="250.9987447347794" cy="-123.36398829586642" fill="blue" r="2"/>
<circle cx="133.34002453320863" cy="-317.10968723520637" fill="blue" r="2"/>
<circle cx="15.68130433161059" cy="-170.8553861745463" fill="blue" r="2"/>
<circle cx="378.02258413003983" cy="-24.60108511386693" fill="blue" r="2"/>
<circle cx="260.3638639284418" cy="-218.34678405320687" fill="blue" r="2"/>
<circle cx="142.70514372684374" cy="-72.09248299254682" fill="blue" r="2"/>
<circle cx="25.046423525272985" cy="-265.83818193188677" fill="blue" r="2"/>
<circle cx="387.38770332367494" cy="-119.58388087122671" fill="blue" r="2"/>
<circle cx="269.7289831220769" cy="-313.32957981056666" fill="blue" r="2"/>
<circle cx="152.07026292047885" cy="-167.0752787499066" fill="blue" r="2"/>
<circle cx="34.41154271893538" cy="-20.820977689246547" fill="blue" r="2"/>
<circle cx="396.75282251733734" cy="-214.5666766285865" fill="blue" r="2"/>
<circle cx="279.0941023157393" cy="-68.31237556792644" fill="blue" r="2"/>
<circle cx="161.43538211414125" cy="-262.0580745072664" fill="blue" r="2"/>
<circle cx="43.776661912543204" cy="-115.803773446587" fill="blue" r="2"/>
<circle cx="406.11794171099973" cy="-309.54947238592695" fill="blue" r="2"/>
<circle cx="288.4592215094017" cy="-163.2951713252669" fill="blue" r="2"/>
<circle cx="170.80050130780364" cy="-17.040870264606838" fill="blue" r="2"/>
<circle cx="53.1417811062056" cy="-210.78656920394678" fill="blue" r="2"/>
<circle cx="415.48306090460756" cy="-64.53226814328673" fill="blue" r="2"/>
<circle cx="297.8243407030641" cy="-258.2779670826267" fill="blue" r="2"/>
<circle cx="180.16562050146604" cy="-112.02366602196662" fill="blue" r="2"/>
<circle cx="62.50690029986799" cy="-305.76936496130656" fill="blue" r="2"/>
<circle cx="424.84818009826995" cy="-159.5150639006465" fill="blue" r="2"/>
<circle cx="307.1894598966719" cy="-13.260762839967128" fill="blue" r="2"/>
<circle cx="189.53073969512843" cy="-207.00646177930707" fill="blue" r="2"/>
<circle cx="71.87201949353039" cy="-60.75216071864702" fill="blue" r="2"/>
<circle cx="434.21329929193234" cy="-254.49785965798696" fill="blue" r="2"/>
<circle cx="316.5545790903343" cy="-108.24355859732691" fill="blue" r="2"/>
<circle cx="198.89585888873626" cy="-301.98925753666686" fill="blue" r="2"/>
<circle cx="81.23713868719278" cy="-155.7349564760068" fill="blue" r="2"/>
<circle cx="443.57841848559474" cy="-9.480655415346746" fill="blue" r="2"/>
<circle cx="325.9196982839967" cy="-203.2263543546867" fill="blue" r="2"/>
<circle cx="208.26097808239865" cy="-56.97205329402664" fill="blue" r="2"/>
<circle cx="90.60225788080061" cy="-250.71775223336658" fill="blue" r="2"/>
<circle cx="452.94353767925713" cy="-104.4634511726872" fill="blue" r="2"/>
<circle cx="335.2848174776591" cy="-298.20915011202715" fill="blue" r="2"/>
<circle cx="217.62609727606105" cy="-151.9548490513671" fill="blue" r="2"/>
<circle cx="99.967377074463" cy="-5.700547990707037" fill="blue" r="2"/>
<circle cx="462.30865687286496" cy="-199.44624693004698" fill="blue" r="2"/>
<circle cx="344.6499366712669" cy="-53.19194586938693" fill="blue" r="2"/>
<circle cx="226.99121646972344" cy="-246.93764480872687" fill="blue" r="2"/>
<circle cx="109.3324962681254" cy="-100.68334374806682" fill="blue" r="2"/>
<circle cx="471.67377606652735" cy="-294.42904268740676" fill="blue" r="2"/>
<circle cx="354.0150558649293" cy="-148.1747416267467" fill="blue" r="2"/>
<circle cx="236.35633566333127" cy="-1.9204405660673274" fill="blue" r="2"/>
<circle cx="118.69761546178779" cy="-195.66613950540727" fill="blue" r="2"/>
<circle cx="1.0388952601897472" cy="-49.41183844474722" fill="blue" r="2"/>
<circle cx="363.3801750585917" cy="-243.15753738408716" fill="blue" r="2"/>
<circle cx="245.72145485699366" cy="-96.90323632342711" fill="blue" r="2"/>
<circle cx="128.06273465539562" cy="-290.64893526276705" fill="blue" r="2"/>
<circle cx="10.404014453852142" cy="-144.394634202107" fill="blue" r="2"/>
<circle cx="372.7452942522541" cy="-338.14033314144694" fill="blue" r="2"/>
<circle cx="255.08657405065605" cy="-191.8860320807869" fill="blue" r="2"/>
<circle cx="137.427853849058" cy="-45.631731020126836" fill="blue" r="2"/>
<circle cx="19.769133647459967" cy="-239.37742995946678" fill="blue" r="2"/>
<circle cx="382.1104134459165" cy="-93.1231288987874" fill="blue" r="2"/>
<circle cx="264.45169324431845" cy="-286.86882783812734" fill="blue" r="2"/>
<circle cx="146.7929730427204" cy="-140.6145267774673" fill="blue" r="2"/>
<circle cx="29.13425284112236" cy="-334.36022571680724" fill="blue" r="2"/>
<circle cx="391.4755326395243" cy="-188.10592465614718" fill="blue" r="2"/>
<circle cx="273.81681243798084" cy="-41.851623595487126" fill="blue" r="2"/>
<circle cx="156.1580922363828" cy="-235.59732253482707" fill="blue" r="2"/>
<circle cx="38.499372034784756" cy="-89.34302147416702" fill="blue" r="2"/>
<circle cx="400.8406518331867" cy="-283.08872041350696" fill="blue" r="2"/>
<circle cx="283.18193163158867" cy="-136.8344193528469" fill="blue" r="2"/>
<circle cx="165.5232114300452" cy="-330.5801182921675" fill="blue" r="2"/>
<circle cx="47.86449122844715" cy="-184.32581723150747" fill="blue" r="2"/>
<circle cx="410.2057710268491" cy="-38.07151617084742" fill="blue" r="2"/>
<circle cx="292.54705082525106" cy="-231.81721511018736" fill="blue" r="2"/>
<circle cx="174.88833062365302" cy="-85.56291404952731" fill="blue" r="2"/>
<circle cx="57.229610422054975" cy="-279.30861298886725" fill="blue" r="2"/>
<circle cx="419.5708902205115" cy="-133.0543119282072" fill="blue" r="2"/>
<circle cx="301.91217001891346" cy="-326.80001086754714" fill="blue" r="2"/>
<circle cx="184.2534498173154" cy="-180.5457098068871" fill="blue" r="2"/>
<circle cx="66.59472961571737" cy="-34.291408746227034" fill="blue" r="2"/>
<circle cx="428.9360094141193" cy="-228.03710768556698" fill="blue" r="2"/>
<circle cx="311.27728921257585" cy="-81.7828066248876" fill="blue" r="2"/>
<circle cx="193.6185690109778" cy="-275.52850556422754" fill="blue" r="2"/>
<circle cx="75.95984880937976" cy="-129.2742045035675" fill="blue" r="2"/>
<circle cx="438.3011286077817" cy="-323.01990344290743" fill="blue" r="2"/>
<circle cx="320.6424084061837" cy="-176.76560238224738" fill="blue" r="2"/>
<circle cx="202.9836882046402" cy="-30.511301321587325" fill="blue" r="2"/>
<circle cx="85.32496800304216" cy="-224.25700026092727" fill="blue" r="2"/>
<circle cx="447.6662478014441" cy="-78.00269920026722" fill="blue" r="2"/>
<circle cx="330.00752759984607" cy="-271.74839813960716" fill="blue" r="2"/>
<circle cx="212.34880739824803" cy="-125.4940970789471" fill="blue" r="2"/>
<circle cx="94.69008719670455" cy="-319.2397960182677" fill="blue" r="2"/>
<circle cx="457.0313669951065" cy="-172.98549495760767" fill="blue" r="2"/>
<circle cx="339.37264679350847" cy="-26.731193896947616" fill="blue" r="2"/>
<circle cx="221.71392659191042" cy="-220.47689283628756" fill="blue" r="2"/>
<circle cx="104.05520639031238" cy="-74.2225917756275" fill="blue" r="2"/>
<circle cx="466.3964861887689" cy="-267.96829071496745" fill="blue" r="2"/>
<circle cx="348.73776598717086" cy="-121.7139896543074" fill="blue" r="2"/>
<circle cx="231.07904578557282" cy="-315.45968859364734" fill="blue" r="2"/>
<circle cx="113.42032558397477" cy="-169.2053875329873" fill="blue" r="2"/>
<circle cx="475.76160538237673" cy="-22.951086472327233" fill="blue" r="2"/>
<circle cx="358.1028851807787" cy="-216.69678541164785" fill="blue" r="2"/>
<circle cx="240.4441649792352" cy="-70.4424843509878" fill="blue" r="2"/>
<circle cx="122.78544477763717" cy="-264.18818329032774" fill="blue" r="2"/>
<circle cx="5.126724576039123" cy="-117.93388222966769" fill="blue" r="2"/>
<circle cx="367.4680043744411" cy="-311.67958116900763" fill="blue" r="2"/>
<circle cx="249.80928417284304" cy="-165.42528010834758" fill="blue" r="2"/>
<circle cx="132.15056397129956" cy="-19.170979047687524" fill="blue" r="2"/>
<circle cx="14.491843769701518" cy="-212.91667798702747" fill="blue" r="2"/>
<circle cx="376.8331235681035" cy="-66.66237692636741" fill="blue" r="2"/>
<circle cx="259.17440336650543" cy="-260.40807586570736" fill="blue" r="2"/>
<circle cx="141.5156831649074" cy="-114.1537748050473" fill="blue" r="2"/>
<circle cx="23.856962963363912" cy="-307.8994737443679" fill="blue" r="2"/>
<circle cx="386.19824276176587" cy="-161.64517268370787" fill="blue" r="2"/>
<circle cx="268.5395225601678" cy="-15.390871623047815" fill="blue" r="2"/>
<circle cx="150.88080235856978" cy="-209.13657056238776" fill="blue" r="2"/>
<circle cx="33.22208215697174" cy="-62.882269501727706" fill="blue" r="2"/>
<circle cx="395.56336195542826" cy="-256.62796844106765" fill="blue" r="2"/>
<circle cx="277.9046417538302" cy="-110.3736673804076" fill="blue" r="2"/>
<circle cx="160.24592155223218" cy="-304.11936631974754" fill="blue" r="2"/>
<circle cx="42.58720135063413" cy="-157.8650652590875" fill="blue" r="2"/>
<circle cx="404.9284811490361" cy="-11.610764198427432" fill="blue" r="2"/>
<circle cx="287.2697609474926" cy="-205.35646313774805" fill="blue" r="2"/>
<circle cx="169.61104074589457" cy="-59.102162077087996" fill="blue" r="2"/>
<circle cx="51.952320544296526" cy="-252.84786101642794" fill="blue" r="2"/>
<circle cx="414.2936003426985" cy="-106.59355995576789" fill="blue" r="2"/>
<circle cx="296.63488014110044" cy="-300.33925889510783" fill="blue" r="2"/>
<circle cx="178.97615993955696" cy="-154.08495783444778" fill="blue" r="2"/>
<circle cx="61.31743973795892" cy="-7.830656773787723" fill="blue" r="2"/>
<circle cx="423.6587195363609" cy="-201.57635571312767" fill="blue" r="2"/>
<circle cx="305.99999933476283" cy="-55.322054652467614" fill="blue" r="2"/>
<circle cx="188.3412791331648" cy="-249.06775359180756" fill="blue" r="2"/>
<circle cx="70.68255893156675" cy="-102.8134525311475" fill="blue" r="2"/>
<circle cx="433.0238387300233" cy="-296.5591514704681" fill="blue" r="2"/>
<circle cx="315.3651185284252" cy="-150.30485040980807" fill="blue" r="2"/>
<circle cx="197.70639832682718" cy="-4.050549349148014" fill="blue" r="2"/>
<circle cx="80.04767812522914" cy="-197.79624828848796" fill="blue" r="2"/>
<circle cx="442.3889579236311" cy="-51.541947227827904" fill="blue" r="2"/>
<circle cx="324.7302377220876" cy="-245.28764616716785" fill="blue" r="2"/>
<circle cx="207.07151752048958" cy="-99.0333451065078" fill="blue" r="2"/>
<circle cx="89.41279731889153" cy="-292.77904404584774" fill="blue" r="2"/>
<circle cx="451.7540771172935" cy="-146.5247429851877" fill="blue" r="2"/>
<circle cx="334.09535691569545" cy="-0.27044192452763127" fill="blue" r="2"/>
<circle cx="216.43663671415197" cy="-194.01614086384825" fill="blue" r="2"/>
<circle cx="98.77791651255393" cy="-47.761839803188195" fill="blue" r="2"/>
<circle cx="461.1191963109559" cy="-241.50753874252814" fill="blue" r="2"/>
<circle cx="343.46047610935784" cy="-95.25323768186809" fill="blue" r="2"/>
<circle cx="225.8017559077598" cy="-288.99893662120803" fill="blue" r="2"/>
<circle cx="108.14303570621632" cy="-142.74463556054798" fill="blue" r="2"/>
<circle cx="470.4843155046183" cy="-336.4903344998879" fill="blue" r="2"/>
<circle cx="352.82559530302024" cy="-190.23603343922787" fill="blue" r="2"/>
<circle cx="235.1668751014222" cy="-43.98173237856781" fill="blue" r="2"/>
<circle cx="117.50815489982415" cy="-237.72743131790776" fill="blue" r="2"/>
<circle cx="479.8494346982807" cy="-91.4731302572477" fill="blue" r="2"/>
<circle cx="362.19071449668263" cy="-285.2188291965683" fill="blue" r="2"/>
<circle cx="244.5319942950846" cy="-138.96452813590827" fill="blue" r="2"/>
<circle cx="126.87327409348654" cy="-332.7102270752482" fill="blue" r="2"/>
<circle cx="9.2145538918885" cy="-186.45592601458816" fill="blue" r="2"/>
<circle cx="371.555833690345" cy="-40.2016249539281" fill="blue" r="2"/>
<circle cx="253.89711348874698" cy="-233.94732389326805" fill="blue" r="2"/>
<circle cx="136.23839328714894" cy="-87.693022832608" fill="blue" r="2"/>
<circle cx="18.579673085550894" cy="-281.43872177194794" fill="blue" r="2"/>
<circle cx="380.92095288395285" cy="-135.18442071128788" fill="blue" r="2"/>
<circle cx="263.2622326823548" cy="-328.93011965062783" fill="blue" r="2"/>
<circle cx="145.60351248081133" cy="-182.67581858994845" fill="blue" r="2"/>
<circle cx="27.94479227921329" cy="-36.421517529288394" fill="blue" r="2"/>
<circle cx="390.28607207761524" cy="-230.16721646862834" fill="blue" r="2"/>
<circle cx="272.6273518760172" cy="-83.91291540796828" fill="blue" r="2"/>
<circle cx="154.96863167441916" cy="-277.65861434730823" fill="blue" r="2"/>
<circle cx="37.30991147287568" cy="-131.40431328664818" fill="blue" r="2"/>
<circle cx="399.65119127127764" cy="-325.1500122259881" fill="blue" r="2"/>
<circle cx="281.9924710696796" cy="-178.89571116532807" fill="blue" r="2"/>
<circle cx="164.33375086808155" cy="-32.64141010466801" fill="blue" r="2"/>
<circle cx="46.67503066648351" cy="-226.38710904400796" fill="blue" r="2"/>
<circle cx="409.01631046494003" cy="-80.1328079833479" fill="blue" r="2"/>
<circle cx="291.357590263342" cy="-273.8785069226685" fill="blue" r="2"/>
<circle cx="173.69887006174395" cy="-127.62420586200847" fill="blue" r="2"/>
<circle cx="56.0401498601459" cy="-321.3699048013484" fill="blue" r="2"/>
<circle cx="418.38142965854786" cy="-175.11560374068836" fill="blue" r="2"/>
<circle cx="300.7227094570044" cy="-28.861302680028302" fill="blue" r="2"/>
<circle cx="183.06398925540634" cy="-222.60700161936825" fill="blue" r="2"/>
<circle cx="65.4052690538083" cy="-76.3527005587082" fill="blue" r="2"/>
<circle cx="427.74654885221025" cy="-270.09839949804814" fill="blue" r="2"/>
<circle cx="310.0878286506122" cy="-123.84409843738808" fill="blue" r="2"/>
<circle cx="192.42910844906874" cy="-317.58979737672803" fill="blue" r="2"/>
<circle cx="74.77038824747069" cy="-171.33549631604865" fill="blue" r="2"/>
<circle cx="437.11166804587265" cy="-25.081195255388593" fill="blue" r="2"/>
<circle cx="319.4529478442746" cy="-218.82689419472854" fill="blue" r="2"/>
<circle cx="201.79422764267656" cy="-72.57259313406848" fill="blue" r="2"/>
<circle cx="84.13550744113309" cy="-266.31829207340843" fill="blue" r="2"/>
<circle cx="446.47678723953504" cy="-120.06399101274837" fill="blue" r="2"/>
<circle cx="328.818067037937" cy="-313.8096899520883" fill="blue" r="2"/>
<circle cx="211.15934683633895" cy="-167.55538889142827" fill="blue" r="2"/>
<circle cx="93.50062663474091" cy="-21.30108783076821" fill="blue" r="2"/>
<circle cx="455.84190643314287" cy="-215.04678677010816" fill="blue" r="2"/>
<circle cx="338.1831862315994" cy="-68.7924857094481" fill="blue" r="2"/>
<circle cx="220.52446603000135" cy="-262.5381846487687" fill="blue" r="2"/>
<circle cx="102.8657458284033" cy="-116.28388358810867" fill="blue" r="2"/>
<circle cx="465.20702562680526" cy="-310.0295825274486" fill="blue" r="2"/>
<circle cx="347.5483054252072" cy="-163.77528146678856" fill="blue" r="2"/>
<circle cx="229.88958522366374" cy="-17.5209804061285" fill="blue" r="2"/>
<circle cx="112.2308650220657" cy="-211.26667934546845" fill="blue" r="2"/>
<circle cx="474.57214482046766" cy="-65.01237828480839" fill="blue" r="2"/>
<circle cx="356.9134246188696" cy="-258.75807722414834" fill="blue" r="2"/>
<circle cx="239.25470441727157" cy="-112.50377616348828" fill="blue" r="2"/>
<circle cx="121.5959842157281" cy="-306.2494751028282" fill="blue" r="2"/>
<circle cx="3.937264014130051" cy="-159.99517404214885" fill="blue" r="2"/>
<circle cx="366.278543812532" cy="-13.740872981488792" fill="blue" r="2"/>
<circle cx="248.61982361093396" cy="-207.48657192082874" fill="blue" r="2"/>
<circle cx="130.96110340933592" cy="-61.23227086016868" fill="blue" r="2"/>
<circle cx="13.302383207792445" cy="-254.97796979950863" fill="blue" r="2"/>
<circle cx="375.6436630061944" cy="-108.72366873884857" fill="blue" r="2"/>
<circle cx="257.98494280459636" cy="-302.4693676781885" fill="blue" r="2"/>
<circle cx="140.3262226029983" cy="-156.21506661752846" fill="blue" r="2"/>
<circle cx="22.66750240140027" cy="-9.96076555686841" fill="blue" r="2"/>
<circle cx="385.0087821998568" cy="-203.70646449620835" fill="blue" r="2"/>
<circle cx="267.35006199825875" cy="-57.45216343552897" fill="blue" r="2"/>
<circle cx="149.6913417966607" cy="-251.19786237486892" fill="blue" r="2"/>
<circle cx="32.032621595062665" cy="-104.94356131420886" fill="blue" r="2"/>
<circle cx="394.3739013934646" cy="-298.6892602535488" fill="blue" r="2"/>
<circle cx="276.71518119192115" cy="-152.43495919288875" fill="blue" r="2"/>
<circle cx="159.0564609903231" cy="-6.1806581322287" fill="blue" r="2"/>
<circle cx="41.39774078872506" cy="-199.92635707156865" fill="blue" r="2"/>
<circle cx="403.739020587127" cy="-53.67205601090859" fill="blue" r="2"/>
<circle cx="286.080300385529" cy="-247.41775495024854" fill="blue" r="2"/>
<circle cx="168.42158018393093" cy="-101.16345388958848" fill="blue" r="2"/>
<circle cx="50.762859982387454" cy="-294.9091528289284" fill="blue" r="2"/>
<circle cx="413.1041397807894" cy="-148.65485176824905" fill="blue" r="2"/>
<circle cx="295.44541957919137" cy="-2.400550707588991" fill="blue" r="2"/>
<circle cx="177.78669937759332" cy="-196.14624964692894" fill="blue" r="2"/>
<circle cx="60.12797917599528" cy="-49.89194858626888" fill="blue" r="2"/>
<circle cx="422.4692589744518" cy="-243.63764752560883" fill="blue" r="2"/>
<circle cx="304.81053877285376" cy="-97.38334646494877" fill="blue" r="2"/>
<circle cx="187.15181857125572" cy="-291.1290454042887" fill="blue" r="2"/>
<circle cx="69.49309836965767" cy="-144.87474434362866" fill="blue" r="2"/>
<circle cx="431.83437816805963" cy="-338.6204432829686" fill="blue" r="2"/>
<circle cx="314.17565796651616" cy="-192.36614222230855" fill="blue" r="2"/>
<circle cx="196.5169377649181" cy="-46.1118411616485" fill="blue" r="2"/>
<circle cx="78.85821756332007" cy="-239.85754010098844" fill="blue" r="2"/>
<circle cx="441.199497361722" cy="-93.60323904032839" fill="blue" r="2"/>
<circle cx="323.540777160124" cy="-287.34893797966834" fill="blue" r="2"/>
<circle cx="205.8820569585805" cy="-141.09463691900828" fill="blue" r="2"/>
<circle cx="88.22333675698246" cy="-334.8403358583482" fill="blue" r="2"/>
<circle cx="450.5646165553844" cy="-188.58603479764952" fill="blue" r="2"/>
<circle cx="332.9058963537864" cy="-42.33173373698946" fill="blue" r="2"/>
<circle cx="215.24717615218833" cy="-236.0774326763294" fill="blue" r="2"/>
<circle cx="97.58845595064486" cy="-89.82313161566935" fill="blue" r="2"/>
<circle cx="459.9297357490468" cy="-283.5688305550093" fill="blue" r="2"/>
<circle cx="342.27101554744877" cy="-137.31452949434924" fill="blue" r="2"/>
<circle cx="224.61229534585073" cy="-331.0602284336892" fill="blue" r="2"/>
<circle cx="106.95357514425268" cy="-184.80592737302914" fill="blue" r="2"/>
<circle cx="469.2948549427092" cy="-38.55162631236908" fill="blue" r="2"/>
<circle cx="351.63613474111116" cy="-232.29732525170903" fill="blue" r="2"/>
<circle cx="233.97741453951312" cy="-86.04302419104897" fill="blue" r="2"/>
<circle cx="116.31869433791508" cy="-279.7887231303889" fill="blue" r="2"/>
<circle cx="478.65997413631703" cy="-133.53442206972886" fill="blue" r="2"/>
<circle cx="361.001253934719" cy="-327.2801210090688" fill="blue" r="2"/>
<circle cx="243.34253373317551" cy="-181.02581994840875" fill="blue" r="2"/>
<circle cx="125.68381353157747" cy="-34.7715188877487" fill="blue" r="2"/>
<circle cx="8.025093329979427" cy="-228.51721782708864" fill="blue" r="2"/>
<circle cx="370.3663731283814" cy="-82.26291676642859" fill="blue" r="2"/>
<circle cx="252.70765292678334" cy="-276.00861570576853" fill="blue" r="2"/>
<circle cx="135.04893272523987" cy="-129.75431464510848" fill="blue" r="2"/>
<circle cx="17.39021252364182" cy="-323.50001358440977" fill="blue" r="2"/>
<circle cx="379.7314923220438" cy="-177.24571252374972" fill="blue" r="2"/>
<circle cx="262.07277212044573" cy="-30.991411463089662" fill="blue" r="2"/>
<circle cx="144.4140519188477" cy="-224.7371104024296" fill="blue" r="2"/>
<circle cx="26.755331717304216" cy="-78.48280934176955" fill="blue" r="2"/>
<circle cx="389.0966115157062" cy="-272.2285082811095" fill="blue" r="2"/>
<circle cx="271.43789131410813" cy="-125.97420722044944" fill="blue" r="2"/>
<circle cx="153.77917111251008" cy="-319.7199061597894" fill="blue" r="2"/>
<circle cx="36.12045091091204" cy="-173.46560509912933" fill="blue" r="2"/>
<circle cx="398.46173070936857" cy="-27.21130403846928" fill="blue" r="2"/>
<circle cx="280.8030105077705" cy="-220.95700297780922" fill="blue" r="2"/>
<circle cx="163.14429030617248" cy="-74.70270191714917" fill="blue" r="2"/>
<circle cx="45.485570104574435" cy="-268.4484008564891" fill="blue" r="2"/>
<circle cx="407.8268499029764" cy="-122.19409979582906" fill="blue" r="2"/>
<circle cx="290.1681297014329" cy="-315.939798735169" fill="blue" r="2"/>
<circle cx="172.50940949983487" cy="-169.68549767450895" fill="blue" r="2"/>
<circle cx="54.85068929823683" cy="-23.431196613848897" fill="blue" r="2"/>
<circle cx="417.1919690966388" cy="-217.17689555318884" fill="blue" r="2"/>
<circle cx="299.53324889504074" cy="-70.92259449252879" fill="blue" r="2"/>
<circle cx="181.8745286934427" cy="-264.66829343186873" fill="blue" r="2"/>
<circle cx="64.21580849189922" cy="-118.41399237120868" fill="blue" r="2"/>
<circle cx="426.5570882903012" cy="-312.15969131050997" fill="blue" r="2"/>
<circle cx="308.89836808870314" cy="-165.90539024984992" fill="blue" r="2"/>
<circle cx="191.2396478871051" cy="-19.65108918918986" fill="blue" r="2"/>
<circle cx="73.58092768550705" cy="-213.3967881285298" fill="blue" r="2"/>
<circle cx="435.9222074839636" cy="-67.14248706786975" fill="blue" r="2"/>
<circle cx="318.26348728236553" cy="-260.8881860072097" fill="blue" r="2"/>
<circle cx="200.6047670807675" cy="-114.63388494654964" fill="blue" r="2"/>
<circle cx="82.94604687916944" cy="-308.3795838858896" fill="blue" r="2"/>
<circle cx="445.2873266775714" cy="-162.12528282522953" fill="blue" r="2"/>
<circle cx="327.6286064760279" cy="-15.870981764569478" fill="blue" r="2"/>
<circle cx="209.96988627442988" cy="-209.61668070390942" fill="blue" r="2"/>
<circle cx="92.31116607283184" cy="-63.36237964324937" fill="blue" r="2"/>
<circle cx="454.6524458712338" cy="-257.1080785825893" fill="blue" r="2"/>
<circle cx="336.99372566963575" cy="-110.85377752192926" fill="blue" r="2"/>
<circle cx="219.33500546809228" cy="-304.5994764612692" fill="blue" r="2"/>
<circle cx="101.67628526649423" cy="-158.34517540060915" fill="blue" r="2"/>
<circle cx="464.0175650648962" cy="-12.090874339949096" fill="blue" r="2"/>
<circle cx="346.35884486329815" cy="-205.83657327928904" fill="blue" r="2"/>
<circle cx="228.7001246617001" cy="-59.58227221862899" fill="blue" r="2"/>
<circle cx="111.04140446015663" cy="-253.32797115796893" fill="blue" r="2"/>
<circle cx="473.3826842585586" cy="-107.07367009730888" fill="blue" r="2"/>
<circle cx="355.72396405696054" cy="-300.81936903661017" fill="blue" r="2"/>
<circle cx="238.0652438553625" cy="-154.56506797595011" fill="blue" r="2"/>
<circle cx="120.40652365376445" cy="-8.31076691529006" fill="blue" r="2"/>
<circle cx="2.747803452220978" cy="-202.05646585463" fill="blue" r="2"/>
<circle cx="365.08908325062293" cy="-55.80216479396995" fill="blue" r="2"/>
<circle cx="247.4303630490249" cy="-249.5478637333099" fill="blue" r="2"/>
<circle cx="129.77164284742685" cy="-103.29356267264984" fill="blue" r="2"/>
<circle cx="12.112922645828803" cy="-297.0392616119898" fill="blue" r="2"/>
<circle cx="374.45420244423076" cy="-150.78496055132973" fill="blue" r="2"/>
<circle cx="256.7954822426873" cy="-4.530659490669677" fill="blue" r="2"/>
<circle cx="139.13676204108924" cy="-198.27635843000962" fill="blue" r="2"/>
<circle cx="21.478041839491198" cy="-52.02205736934957" fill="blue" r="2"/>
<circle cx="383.81932163789315" cy="-245.7677563086895" fill="blue" r="2"/>
<circle cx="266.1606014362951" cy="-99.51345524802946" fill="blue" r="2"/>
<circle cx="148.50188123475164" cy="-293.2591541873694" fill="blue" r="2"/>
<circle cx="30.843161033153592" cy="-147.00485312670935" fill="blue" r="2"/>
<circle cx="393.18444083155555" cy="-0.7505520660492948" fill="blue" r="2"/>
<circle cx="275.5257206299575" cy="-194.49625100538924" fill="blue" r="2"/>
<circle cx="157.86700042835946" cy="-48.241949944729186" fill="blue" r="2"/>
<circle cx="40.20828022681599" cy="-241.98764888406913" fill="blue" r="2"/>
<circle cx="402.54956002521794" cy="-95.73334782340908" fill="blue" r="2"/>
<circle cx="284.8908398236199" cy="-289.47904676271037" fill="blue" r="2"/>
<circle cx="167.23211962202186" cy="-143.2247457020503" fill="blue" r="2"/>
<circle cx="49.57339942042381" cy="-336.97044464139026" fill="blue" r="2"/>
<circle cx="411.91467921888034" cy="-190.7161435807302" fill="blue" r="2"/>
<circle cx="294.2559590172823" cy="-44.46184252007015" fill="blue" r="2"/>
<circle cx="176.59723881568425" cy="-238.2075414594101" fill="blue" r="2"/>
<circle cx="58.938518614086206" cy="-91.95324039875004" fill="blue" r="2"/>
</g>
</g>
<g>
<g>
<line stroke="black" stroke-width="1" x1="0" x2="0" y1="0" y2="10"/>
<line stroke="black" stroke-width="1" x1="96" x2="96" y1="0" y2="10"/>
<line stroke="black" stroke-width="1" x1="192" x2="192" y1="0" y2="10"/>
<line stroke="black" stroke-width="1" x1="288" x2="288" y1="0" y2="10"/>
<line stroke="black" stroke-width="1" x1="384" x2="384" y1="0" y2="10"/>
<line stroke="black" stroke-width="1" x1="480" x2="480" y1="0" y2="10"/>
</g>
<line stroke="black" stroke-width="1" x1="0" x2="480" y1="0" y2="0"/>
<g>
<text font-size="12" text-anchor="middle" x="0" y="20">
0
</text>
<text font-size="12" text-anchor="middle" x="96" y="20">
0.2
</text>
<text font-size="12" text-anchor="middle" x="192" y="20">
0.4
</text>
<text font-size="12" text-anchor="middle" x="288" y="20">
0.6
</text>
<text font-size="12" text-anchor="middle" x="384" y="20">
0.8
</text>
<text font-size="12" text-anchor="middle" x="480" y="20">
1
</text>
</g>
<text font-size="12" text-anchor="middle" x="240" y="30">

</text>
</g>
<g>
<g>
<line stroke="black" stroke-width="1" x1="0" x2="-10" y1="0" y2="0"/>
<line stroke="black" stroke-width="1" x1="0" x2="-10" y1="-68" y2="-68"/>
<line stroke="black" stroke-width="1" x1="0" x2="-10" y1="-136" y2="-136"/>
<line stroke="black" stroke-width="1" x1="0" x2="-10" y1="-204" y2="-204"/>
<line stroke="black" stroke-width="1" x1="0" x2="-10" y1="-272" y2="-272"/>
<line stroke="black" stroke-width="1" x1="0" x2="-10" y1="-340" y2="-340"/>
</g>
<line stroke="black" stroke-width="1" x1="0" x2="0" y1="0" y2="-340"/>
<g>
<text dominant-baseline="middle" font-size="12" text-anchor="end" x="-15" y="0">
0
</text>
<text dominant-baseline="middle" font-size="12" text-anchor="end" x="-15" y="-68">
0.2
</text>
<text dominant-baseline="middle" font-size="12" text-anchor="end" x="-15" y="-136">
0.4
</text>
<text dominant-baseline="middle" font-size="12" text-anchor="end" x="-15" y="-204">
0.6
</text>
<text dominant-baseline="middle" font-size="12" text-anchor="end" x="-15" y="-272">
0.8
</text>
<text dominant-baseline="middle" font-size="12" text-anchor="end" x="-15" y="-340">
1
</text>
</g>
<text font-size="12" text-anchor="middle" transform="rotate(-90 -36 -170)" x="-36" y="-182">

</text>
</g>
</g>
</svg>